<svg width="34" height="34" viewBox="0 0 34 34" fill="none" xmlns="http://www.w3.org/2000/svg">
<g clip-path="url(#clip0_45_3015)">
<rect width="34" height="34" rx="17" fill="black"/>
<g clip-path="url(#clip1_45_3015)">
<path d="M16.9999 2.49997C14.1321 2.49997 11.3287 3.35037 8.9442 4.94365C6.5597 6.53692 4.70121 8.8015 3.60375 11.451C2.50628 14.1005 2.21914 17.016 2.77862 19.8287C3.3381 22.6414 4.71909 25.225 6.74694 27.2529C8.77479 29.2807 11.3584 30.6617 14.1711 31.2212C16.9838 31.7807 19.8993 31.4935 22.5488 30.3961C25.1983 29.2986 27.4629 27.4401 29.0562 25.0556C30.6494 22.6711 31.4999 19.8677 31.4999 16.9999C31.5086 15.0933 31.1395 13.2039 30.4139 11.4407C29.6883 9.67755 28.6206 8.07562 27.2724 6.72744C25.9242 5.37926 24.3223 4.31153 22.5591 3.58594C20.796 2.86034 18.9065 2.49124 16.9999 2.49997ZM16.9999 7.77267C18.0428 7.77267 19.0622 8.08191 19.9293 8.66128C20.7964 9.24065 21.4722 10.0641 21.8713 11.0276C22.2703 11.9911 22.3748 13.0512 22.1713 14.074C21.9679 15.0968 21.4657 16.0363 20.7283 16.7737C19.9909 17.5111 19.0514 18.0133 18.0286 18.2168C17.0058 18.4202 15.9456 18.3158 14.9822 17.9167C14.0187 17.5176 13.1952 16.8418 12.6158 15.9747C12.0365 15.1076 11.7272 14.0882 11.7272 13.0454C11.7272 11.647 12.2827 10.3058 13.2716 9.317C14.2604 8.32818 15.6015 7.77267 16.9999 7.77267ZM16.9999 28.8635C14.0197 28.8444 11.1533 27.7167 8.95906 25.6998C11.4296 24.3575 14.1886 23.6338 16.9999 23.5908C19.8113 23.6338 22.5703 24.3575 25.0408 25.6998C22.8466 27.7167 19.9802 28.8444 16.9999 28.8635Z" fill="white"/>
</g>
</g>
<defs>
<clipPath id="clip0_45_3015">
<rect width="34" height="34" rx="17" fill="white"/>
</clipPath>
<clipPath id="clip1_45_3015">
<rect width="36" height="36" fill="white" transform="translate(-1 -1)"/>
</clipPath>
</defs>
</svg>
