<svg width="28" height="29" viewBox="0 0 28 29" fill="none" xmlns="http://www.w3.org/2000/svg">
<path d="M13.1991 18.1629C13.4002 17.5406 13.6795 16.9533 14.0255 16.4129H4.96157C3.51255 16.4129 2.33789 17.5877 2.33789 19.0367V19.7106C2.33789 20.7522 2.70949 21.7596 3.38588 22.5517C5.21323 24.6916 7.99691 25.7477 11.6671 25.7477C12.7533 25.7477 13.7621 25.6551 14.6915 25.4694C14.2724 24.9873 13.9132 24.4517 13.6254 23.8743C13.0147 23.9565 12.3622 23.9977 11.6671 23.9977C8.4724 23.9977 6.17887 23.1276 4.71668 21.4152C4.31085 20.9399 4.08789 20.3356 4.08789 19.7106V19.0367C4.08789 18.5541 4.47905 18.1629 4.96157 18.1629H13.1991Z" fill="white"/>
<path d="M11.6671 2.41846C14.8888 2.41846 17.5005 5.03012 17.5005 8.25179C17.5005 11.4734 14.8888 14.0851 11.6671 14.0851C8.44542 14.0851 5.83374 11.4734 5.83374 8.25179C5.83374 5.03012 8.44542 2.41846 11.6671 2.41846ZM11.6671 4.16846C9.41192 4.16846 7.58374 5.99662 7.58374 8.25179C7.58374 10.507 9.41192 12.3351 11.6671 12.3351C13.9223 12.3351 15.7505 10.507 15.7505 8.25179C15.7505 5.99662 13.9223 4.16846 11.6671 4.16846Z" fill="white"/>
<path d="M20.4167 14.0797C23.9605 14.0797 26.8333 16.9525 26.8333 20.4964C26.8333 24.0402 23.9605 26.913 20.4167 26.913C16.8728 26.913 14 24.0402 14 20.4964C14 16.9525 16.8728 14.0797 20.4167 14.0797ZM22.75 20.4965H20.4167V17.5796C20.4167 17.2575 20.1555 16.9963 19.8333 16.9963C19.5112 16.9963 19.25 17.2575 19.25 17.5796V21.078V21.0798C19.25 21.4019 19.5112 21.6632 19.8333 21.6632H22.75C23.0721 21.6632 23.3333 21.4019 23.3333 21.0798C23.3333 20.7576 23.0721 20.4965 22.75 20.4965Z" fill="white"/>
</svg>
