<svg width="18" height="18" viewBox="0 0 18 18" fill="none" xmlns="http://www.w3.org/2000/svg">
<path d="M2.56997 0.439264L8.99999 6.86945L15.43 0.439264C15.9663 -0.0970099 16.816 -0.146955 17.4509 0.348993L17.5607 0.44904C18.1464 1.03472 18.1464 1.98431 17.5607 2.57L11.1306 9L17.5607 15.43C18.097 15.9663 18.1469 16.8161 17.651 17.4509L17.551 17.5607C16.9653 18.1464 16.0157 18.1464 15.43 17.5607L8.99999 11.1305L2.56997 17.5607C2.0337 18.097 1.18394 18.147 0.549129 17.651L0.439266 17.551C-0.146419 16.9653 -0.146425 16.0157 0.439266 15.43L6.86942 9L0.439266 2.56999C-0.0970078 2.03372 -0.146952 1.18393 0.348995 0.549124L0.449016 0.439264C1.0347 -0.146421 1.98429 -0.146421 2.56997 0.439264ZM1.52151 17.2499C1.51751 17.25 1.51351 17.25 1.50952 17.25L1.52151 17.2499ZM1.62107 17.2417L1.58821 17.2459C1.5991 17.2447 1.61011 17.2433 1.62107 17.2417ZM1.39897 17.2418L1.41233 17.2437C1.4078 17.2431 1.40349 17.2425 1.39897 17.2418ZM1.30471 17.2216L1.31643 17.2248C1.31239 17.2238 1.30874 17.2228 1.30471 17.2216ZM1.71629 17.2211L1.67587 17.2314C1.68938 17.2283 1.70288 17.2249 1.71629 17.2211ZM1.80116 17.1912L1.76998 17.2035C1.78037 17.1997 1.79079 17.1955 1.80116 17.1912ZM1.21774 17.1911C1.21953 17.1919 1.22143 17.1927 1.21774 17.1911V17.1911ZM1.12976 17.1469L1.05001 17.0928C1.08332 17.1187 1.11827 17.1414 1.15452 17.1609L1.12976 17.1469ZM1.88891 17.1471L1.86479 17.1607C1.87271 17.1564 1.88083 17.1519 1.88891 17.1471ZM17.1609 16.8455L17.1469 16.8702L17.0927 16.95C17.1186 16.9167 17.1414 16.8817 17.1609 16.8455ZM17.2024 16.754L17.1911 16.7823C17.1951 16.7728 17.1988 16.7634 17.2024 16.754ZM17.2311 16.6583L17.2216 16.6953C17.225 16.6833 17.2282 16.6708 17.2311 16.6583ZM17.2458 16.5697L17.2418 16.601C17.2434 16.5908 17.2447 16.5802 17.2458 16.5697ZM16.4905 1.49974L8.99999 8.99043L1.50952 1.49974L1.49972 1.50951L8.99042 9L1.49972 16.4905L1.50952 16.5003L8.99999 9.00957L16.4905 16.5003L16.5003 16.4905L9.00956 9L16.5003 1.50951L16.4905 1.49974ZM17.2499 16.4785L17.2499 16.5002C17.25 16.493 17.25 16.4858 17.2499 16.4785ZM17.2417 16.3789L17.2459 16.4118C17.2447 16.4009 17.2433 16.3899 17.2417 16.3789ZM17.2211 16.2837L17.2314 16.3241C17.2283 16.3106 17.2249 16.2971 17.2211 16.2837ZM17.1912 16.1988L17.2035 16.23C17.1996 16.2196 17.1955 16.2092 17.1912 16.1988ZM17.1471 16.1111L17.1607 16.1352C17.1564 16.1273 17.1519 16.1191 17.1471 16.1111ZM0.839305 1.86478L0.850612 1.88506C0.846666 1.87825 0.843019 1.87169 0.839305 1.86478ZM0.796504 1.76997L0.806575 1.79581C0.803025 1.7872 0.79972 1.77867 0.796504 1.76997ZM0.768581 1.67589L0.775173 1.70258C0.772815 1.69369 0.770607 1.68484 0.768581 1.67589ZM0.753795 1.58521L0.756267 1.60671C0.755332 1.59952 0.754522 1.59243 0.753795 1.58521ZM0.750316 1.48775L0.749996 1.50951C0.749996 1.50222 0.750104 1.49505 0.750316 1.48775ZM0.758144 1.39895L0.756267 1.41232C0.756857 1.40779 0.757472 1.40348 0.758144 1.39895ZM0.778377 1.30474L0.775173 1.31645C0.776246 1.31241 0.777235 1.30877 0.778377 1.30474ZM0.808864 1.21774C0.807315 1.22143 0.80811 1.21953 0.808864 1.21774V1.21774ZM0.853084 1.12977L0.907237 1.05C0.881341 1.0833 0.85862 1.11829 0.839122 1.15454L0.853084 1.12977ZM1.86447 0.839131L1.88928 0.853073L1.96902 0.907224C1.93572 0.881328 1.90072 0.858629 1.86447 0.839131ZM16.1352 0.839292L16.1149 0.850621C16.1217 0.846675 16.1283 0.843006 16.1352 0.839292ZM1.15425 0.839292L1.13397 0.850621C1.14078 0.846675 1.14734 0.843006 1.15425 0.839292ZM16.8455 0.839131L16.8702 0.853073L16.95 0.907224C16.9167 0.881328 16.8817 0.858629 16.8455 0.839131ZM1.24607 0.797615L1.22323 0.806599C1.23079 0.803479 1.23844 0.800477 1.24607 0.797615ZM1.76985 0.796451L1.8013 0.808888C1.79081 0.804466 1.78037 0.800337 1.76985 0.796451ZM16.23 0.796499L16.2042 0.806599C16.2128 0.803048 16.2213 0.799716 16.23 0.796499ZM16.754 0.797629L16.7822 0.808888C16.7728 0.804905 16.7634 0.80117 16.754 0.797629ZM1.34193 0.768865L1.31643 0.775156C1.32482 0.772929 1.33348 0.770796 1.34193 0.768865ZM1.67582 0.768579L1.71643 0.778967C1.70291 0.775103 1.68939 0.771651 1.67582 0.768579ZM16.3241 0.76859L16.2974 0.775156C16.3063 0.772798 16.3152 0.770617 16.3241 0.76859ZM16.6583 0.768916L16.6953 0.778366C16.6833 0.774966 16.6708 0.771779 16.6583 0.768916ZM1.43353 0.753833L1.41233 0.756288C1.41933 0.755378 1.42651 0.754545 1.43353 0.753833ZM1.58509 0.753796L1.62098 0.758288C1.60908 0.756506 1.59711 0.755006 1.58509 0.753796ZM16.4148 0.753807L16.3933 0.756288C16.4005 0.755352 16.4076 0.754534 16.4148 0.753807ZM16.5666 0.753853L16.601 0.758147C16.5897 0.75647 16.5782 0.755027 16.5666 0.753853ZM16.4687 0.750311L16.5123 0.750317C16.4978 0.749895 16.4833 0.749892 16.4687 0.750311ZM1.48764 0.750317L1.53126 0.750311C1.51672 0.749892 1.50217 0.749895 1.48764 0.750317Z" fill="white"/>
</svg>
