<svg width="91" height="91" viewBox="0 0 91 91" fill="none" xmlns="http://www.w3.org/2000/svg">
<path d="M32.5683 20.6284C29.8694 23.93 28.6372 28.1992 28.6372 31.8552C28.6372 33.4085 27.3791 34.6677 25.8271 34.6677C15.6444 34.6677 11.7769 41.7786 11.7769 45.9177C11.7769 48.3217 12.384 51.0801 14.2429 53.2063C16.0347 55.2559 19.385 57.1677 25.8271 57.1677H39.4609C38.9417 58.9683 38.617 60.8514 38.5108 62.7927H25.8271C18.219 62.7927 13.1391 60.4858 10.0133 56.9104C6.95457 53.4116 6.15674 49.1387 6.15674 45.9177C6.15674 39.2926 11.5826 30.3644 23.1769 29.1755C23.6597 25.0811 25.2549 20.6919 28.2186 17.0664C31.9141 12.5459 37.6302 9.35522 45.4975 9.35522C50.2748 9.35522 55.8445 10.9344 60.2735 14.5613C64.2666 17.8312 67.2211 22.682 67.8524 29.2038C71.7238 29.6679 75.4771 31.125 78.4769 33.4435C82.205 36.3249 84.8383 40.6134 84.8383 45.9177C84.8383 47.2202 84.724 48.4826 84.4905 49.6921C82.9765 47.529 81.1331 45.6139 79.0331 44.0196C78.5454 41.5766 77.1178 39.5 75.0419 37.8956C72.4096 35.8612 68.81 34.6677 65.1679 34.6677C63.616 34.6677 62.3579 33.4085 62.3579 31.8552C62.3579 25.6669 59.9256 21.5443 56.7146 18.9148C53.4159 16.2135 49.1504 14.9802 45.4975 14.9802C39.3146 14.9802 35.1955 17.4146 32.5683 20.6284ZM84.8383 64.199C84.8383 52.5492 75.4025 43.1052 63.7629 43.1052C52.1233 43.1052 42.6875 52.5492 42.6875 64.199C42.6875 75.8487 52.1233 85.2927 63.7629 85.2927C75.4025 85.2927 84.8383 75.8487 84.8383 64.199ZM62.9752 49.348C63.7982 48.5243 65.1326 48.5243 65.9557 49.348L77.1959 60.598C78.0189 61.4218 78.0189 62.7574 77.1959 63.5812C76.3729 64.4049 75.0384 64.4049 74.2154 63.5812L66.573 55.9321V77.5583C66.573 78.7233 65.6294 79.6677 64.4654 79.6677C63.3015 79.6677 62.3579 78.7233 62.3579 77.5583V55.9321L54.7154 63.5812C53.8924 64.4049 52.558 64.4049 51.7349 63.5812C50.9119 62.7574 50.9119 61.4218 51.7349 60.598L62.9752 49.348Z" fill="#0A1F44"/>
</svg>
