<svg width="28" height="29" viewBox="0 0 28 29" fill="none" xmlns="http://www.w3.org/2000/svg">
<path fill-rule="evenodd" clip-rule="evenodd" d="M13.1953 2.49499C13.646 2.06588 14.3539 2.06588 14.8046 2.49499L24.1379 11.3839L27.0546 14.1617C27.5211 14.606 27.5391 15.3445 27.0947 15.8111C26.6504 16.2777 25.9119 16.2957 25.4453 15.8513L24.4999 14.951V23.7565C24.4999 25.0452 23.4553 26.0898 22.1666 26.0898H16.3333H11.6666H5.83325C4.54459 26.0898 3.49992 25.0452 3.49992 23.7565V14.951L2.55452 15.8513C2.08793 16.2957 1.34946 16.2777 0.905093 15.8111C0.460726 15.3445 0.478737 14.606 0.945324 14.1617L3.86198 11.3839L13.1953 2.49499ZM5.83325 12.7287V23.7565H10.4999V17.9232C10.4999 15.9901 12.0669 14.4232 13.9999 14.4232C15.933 14.4232 17.4999 15.9901 17.4999 17.9232V23.7565H22.1666V12.7287L13.9999 4.95093L5.83325 12.7287ZM15.1666 23.7565V17.9232C15.1666 17.2788 14.6443 16.7565 13.9999 16.7565C13.3556 16.7565 12.8333 17.2788 12.8333 17.9232V23.7565H15.1666Z" fill="white"/>
</svg>
