<svg width="28" height="29" viewBox="0 0 28 29" fill="none" xmlns="http://www.w3.org/2000/svg">
<path fill-rule="evenodd" clip-rule="evenodd" d="M13.1953 2.9447C13.646 2.51559 14.3539 2.51559 14.8046 2.9447L24.138 11.8336L27.0546 14.6114C27.5212 15.0557 27.5392 15.7942 27.0948 16.2608C26.6505 16.7274 25.912 16.7454 25.4453 16.301L24.5 15.4007V24.2062C24.5 25.4949 23.4554 26.5395 22.1667 26.5395H16.3333H11.6666H5.83332C4.54465 26.5395 3.49998 25.4949 3.49998 24.2062V15.4007L2.55459 16.301C2.08799 16.7454 1.34952 16.7274 0.905154 16.2608C0.460787 15.7942 0.478798 15.0557 0.945385 14.6114L3.86205 11.8336L13.1953 2.9447ZM5.83332 13.1784V24.2062H10.5V18.3729C10.5 16.4398 12.0669 14.8729 14 14.8729C15.933 14.8729 17.5 16.4398 17.5 18.3729V24.2062H22.1667V13.1784L14 5.40064L5.83332 13.1784ZM15.1666 24.2062V18.3729C15.1666 17.7285 14.6443 17.2062 14 17.2062C13.3556 17.2062 12.8333 17.7285 12.8333 18.3729V24.2062H15.1666Z" fill="#012670"/>
</svg>
