<svg width="24" height="24" viewBox="0 0 24 24" fill="none" xmlns="http://www.w3.org/2000/svg">
<path fill-rule="evenodd" clip-rule="evenodd" d="M3.45819 5.99586C2.42634 4.83503 3.25039 3 4.80352 3H18.7952C20.3484 3 21.1724 4.83504 20.1405 5.99586L14.4993 12.3422V20.1C14.4993 20.4119 14.3379 20.7016 14.0725 20.8656C13.8072 21.0296 13.4759 21.0445 13.1969 20.905L9.59687 19.105C9.29196 18.9525 9.09936 18.6409 9.09936 18.3V12.3422L3.45819 5.99586ZM18.7952 4.8H4.80352L10.672 11.402C10.8184 11.5668 10.8993 11.7796 10.8993 12V17.7438L12.6993 18.6438V12C12.6993 11.7796 12.7803 11.5668 12.9267 11.402L18.7952 4.8Z" fill="#7A8AB5"/>
</svg>
