<svg width="28" height="28" viewBox="0 0 28 28" fill="none" xmlns="http://www.w3.org/2000/svg">
<path d="M12.8586 11.1416C12.8586 11.7508 13.354 12.2446 13.965 12.2446C14.5761 12.2446 15.0714 11.7508 15.0714 11.1416H12.8586ZM15.0714 2.50296C15.0714 1.8938 14.5761 1.39996 13.965 1.39996C13.354 1.39996 12.8586 1.8938 12.8586 2.50296H15.0714ZM9.9978 6.41721C10.5539 6.16477 10.7994 5.51068 10.5463 4.95629C10.293 4.40189 9.63685 4.15713 9.08073 4.40958L9.9978 6.41721ZM3.63826 14.5036L2.53168 14.4978L2.5319 14.5163L3.63826 14.5036ZM13.965 24.5629L13.9777 23.4599C13.9693 23.4599 13.9607 23.4599 13.9523 23.4599L13.965 24.5629ZM24.2918 14.5036L25.3983 14.5163L25.3982 14.4978L24.2918 14.5036ZM18.8493 4.40958C18.2931 4.15713 17.6371 4.40189 17.3838 4.95629C17.1306 5.51068 17.3761 6.16477 17.9323 6.41721L18.8493 4.40958ZM15.0714 11.1416V2.50296H12.8586V11.1416H15.0714ZM9.08073 4.40958C5.1112 6.21154 2.55453 10.1497 2.53168 14.4978L4.74468 14.5093C4.76302 11.0216 6.81368 7.86264 9.9978 6.41721L9.08073 4.40958ZM2.5319 14.5163C2.60463 20.7459 7.72881 25.7373 13.9777 25.6659L13.9523 23.4599C8.92532 23.5175 4.80313 19.502 4.74463 14.4908L2.5319 14.5163ZM13.9523 25.6659C20.2012 25.7373 25.3258 20.7459 25.3983 14.5163L23.1855 14.4908C23.1269 19.502 19.0048 23.5175 13.9777 23.4599L13.9523 25.6659ZM25.3982 14.4978C25.3753 10.1497 22.8189 6.21154 18.8493 4.40958L17.9323 6.41721C21.1163 7.86264 23.167 11.0216 23.1853 14.5093L25.3982 14.4978Z" fill="#012670"/>
</svg>
