<svg width="143" height="38" viewBox="0 0 143 38" fill="none" xmlns="http://www.w3.org/2000/svg">
<path d="M14.0111 17.8073L5.50916 0.300476H0.00012207V24.195H4.30864V6.95828L12.7777 24.195H18.3196V0.300476H14.0111V17.8073Z" fill="white"/>
<path d="M39.0053 10.1674H22.2955V14.5088H39.0053V10.1674Z" fill="white"/>
<path d="M39.0057 0.300476H22.2955V4.64183H39.0057V0.300476Z" fill="white"/>
<path d="M39.0057 19.8698H22.2955V24.2111H39.0057V19.8698Z" fill="white"/>
<path d="M54.4731 11.2124L52.0839 7.17623L56.1058 0.30072H60.8571L54.4731 11.2124Z" fill="white"/>
<path d="M61.2201 24.2111H56.4688L51.6417 16.0521L46.8646 24.2111H42.1133L49.2512 12.0183L42.3105 0.300415H47.0617L50.3444 5.84707L51.6102 7.98688L53.9994 12.0244L53.9971 12.0291L56.2771 15.8733L61.2201 24.2111Z" fill="#47CAFE"/>
<path d="M63.933 4.64194H70.445V24.2113H74.9509V4.64194H81.4632V0.301025H63.933V4.64194Z" fill="white"/>
<path d="M91.8233 14.1959H97.6112V15.5608C97.6112 17.1066 97.3946 18.3728 96.9615 19.3595C96.5811 20.2872 95.897 21.0583 95.0211 21.5465C94.1604 22.0181 93.0668 22.2538 91.7403 22.2536C90.3809 22.2536 89.249 22.0233 88.3445 21.5625C87.4573 21.1193 86.743 20.3932 86.3144 19.4988C85.8648 18.5836 85.6401 17.4297 85.6402 16.037V8.98294C85.6402 7.48112 85.8622 6.23406 86.3062 5.24176C86.708 4.29683 87.4103 3.51079 88.3041 3.00544C89.1922 2.50656 90.305 2.25719 91.6425 2.25734C92.5466 2.23747 93.4434 2.42295 94.2655 2.79983C95.026 3.16988 95.6776 3.73088 96.1566 4.42802C96.7141 5.25935 97.1179 6.1839 97.349 7.1578H99.9143C99.6073 5.56844 99.0975 4.25021 98.385 3.20306C97.7014 2.18114 96.7519 1.3652 95.6388 0.843195C94.5203 0.316814 93.1885 0.0536891 91.6434 0.0538331C89.7794 0.0538331 88.2281 0.382743 86.9895 1.04058C85.7561 1.69238 84.7752 2.73689 84.202 4.00882C83.5829 5.3301 83.2734 6.98827 83.2734 8.98337V16.0383C83.2734 17.9131 83.5858 19.4726 84.2107 20.717C84.8131 21.9391 85.8054 22.9257 87.031 23.5209C88.2863 24.1459 89.8568 24.4584 91.7423 24.4582C93.6061 24.4582 95.1575 24.1293 96.3964 23.4715C97.6313 22.8178 98.6123 21.7701 99.1836 20.495C99.8027 19.1686 100.112 17.5076 100.112 15.5123V11.992H91.8241L91.8233 14.1959Z" fill="#47CAFE"/>
<path d="M120.568 13.4393H104.879L104.872 11.2354H120.568V13.4393Z" fill="#47CAFE"/>
<path d="M120.569 0.774963V2.97781H104.847L104.841 0.774963H120.569Z" fill="#47CAFE"/>
<path d="M104.905 22.0068H120.569V24.2096H104.913L104.905 22.0068Z" fill="#47CAFE"/>
<path d="M140.632 0.300476V20.3374L127.723 0.300476H125.338V24.195H127.706V4.45437L140.583 24.195H143V0.300476H140.632Z" fill="#47CAFE"/>
<path d="M2.80758 37.6316V30.7855H0.0432129V30.0188H6.46821V30.7855H3.70384V37.6316H2.80758Z" fill="white"/>
<path d="M15.1219 37.7288C14.294 37.7288 13.6389 37.4876 13.1566 37.0053C12.6743 36.5158 12.4331 35.8535 12.4331 35.0184C12.4331 34.4785 12.5411 34.0034 12.757 33.593C12.973 33.1755 13.2682 32.8552 13.6425 32.632C14.024 32.4016 14.4632 32.2864 14.9599 32.2864C15.6726 32.2864 16.2305 32.5168 16.6336 32.9775C17.0368 33.4311 17.2383 34.0574 17.2383 34.8564V35.1912H13.2862C13.3149 35.7887 13.4877 36.2458 13.8045 36.5626C14.1212 36.8721 14.5604 37.0269 15.1219 37.0269C15.4386 37.0269 15.741 36.9801 16.0289 36.8865C16.3169 36.7857 16.5904 36.6238 16.8496 36.4006L17.1519 37.0161C16.9144 37.2393 16.612 37.4156 16.2449 37.5452C15.8778 37.6676 15.5034 37.7288 15.1219 37.7288ZM14.9815 32.9343C14.4848 32.9343 14.0924 33.0891 13.8045 33.3987C13.5165 33.7082 13.3473 34.115 13.297 34.6189H16.4825C16.4609 34.0862 16.3205 33.6722 16.0613 33.3771C15.8094 33.0819 15.4494 32.9343 14.9815 32.9343Z" fill="white"/>
<path d="M26.9917 37.7288C26.4661 37.7288 26.0126 37.6172 25.6311 37.394C25.2495 37.1637 24.9544 36.8433 24.7456 36.433C24.544 36.0155 24.4433 35.5295 24.4433 34.9752C24.4433 34.1402 24.67 33.4851 25.1235 33.0099C25.5771 32.5276 26.1998 32.2864 26.9917 32.2864C27.3156 32.2864 27.636 32.344 27.9527 32.4592C28.2695 32.5744 28.5322 32.7364 28.741 32.9451L28.4386 33.5822C28.2299 33.3807 27.9995 33.2331 27.7475 33.1395C27.5028 33.0459 27.2688 32.9991 27.0456 32.9991C26.4985 32.9991 26.0774 33.1719 25.7822 33.5174C25.4871 33.8558 25.3395 34.3453 25.3395 34.986C25.3395 35.6123 25.4871 36.109 25.7822 36.4762C26.0774 36.8361 26.4985 37.0161 27.0456 37.0161C27.2688 37.0161 27.5028 36.9693 27.7475 36.8757C27.9995 36.7821 28.2299 36.631 28.4386 36.4222L28.741 37.0593C28.5322 37.2681 28.2659 37.4336 27.9419 37.556C27.6252 37.6712 27.3084 37.7288 26.9917 37.7288Z" fill="white"/>
<path d="M36.0287 37.6316V30.0188H36.9033V33.2475C37.0761 32.9307 37.3173 32.6932 37.6268 32.5348C37.9436 32.3692 38.2963 32.2864 38.685 32.2864C39.9304 32.2864 40.5531 32.9775 40.5531 34.3597V37.6316H39.6785V34.4137C39.6785 33.9242 39.5813 33.5678 39.3869 33.3447C39.1998 33.1143 38.8974 32.9991 38.4799 32.9991C37.9975 32.9991 37.6124 33.1503 37.3245 33.4527C37.0437 33.7478 36.9033 34.1438 36.9033 34.6405V37.6316H36.0287Z" fill="white"/>
<path d="M62.3602 37.7294C61.7627 37.7294 61.2228 37.6538 60.7405 37.5026C60.2581 37.3442 59.8406 37.1175 59.4879 36.8223L59.801 36.1096C60.1681 36.3904 60.5533 36.5991 60.9564 36.7359C61.3596 36.8727 61.8275 36.9411 62.3602 36.9411C63.0081 36.9411 63.4868 36.8223 63.7964 36.5847C64.1131 36.34 64.2715 36.0196 64.2715 35.6237C64.2715 35.3069 64.1563 35.055 63.926 34.8678C63.7028 34.6806 63.3249 34.5331 62.7921 34.4251L61.6691 34.1983C60.9924 34.0543 60.4849 33.8204 60.1466 33.4964C59.8154 33.1653 59.6498 32.7261 59.6498 32.179C59.6498 31.7255 59.765 31.3296 59.9954 30.9912C60.2329 30.6529 60.5605 30.3901 60.978 30.2029C61.3956 30.0158 61.8779 29.9222 62.425 29.9222C62.9361 29.9222 63.4112 30.005 63.8504 30.1705C64.2895 30.3289 64.6602 30.5593 64.9626 30.8616L64.6494 31.5527C64.3255 31.2576 63.9835 31.0452 63.6236 30.9156C63.2637 30.7788 62.8605 30.7105 62.4142 30.7105C61.8455 30.7105 61.392 30.8436 61.0536 31.11C60.7153 31.3692 60.5461 31.7147 60.5461 32.1466C60.5461 32.4922 60.6505 32.7657 60.8592 32.9673C61.0752 33.1689 61.4244 33.3164 61.9067 33.41L63.0297 33.6476C63.7568 33.7988 64.2931 34.0291 64.6386 34.3387C64.9914 34.641 65.1678 35.055 65.1678 35.5805C65.1678 36.0052 65.0526 36.3796 64.8222 36.7035C64.5991 37.0275 64.2751 37.2794 63.8504 37.4594C63.4328 37.6394 62.9361 37.7294 62.3602 37.7294Z" fill="white"/>
<path d="M75.0507 37.7294C74.2229 37.7294 73.5678 37.4882 73.0855 37.0059C72.6031 36.5163 72.362 35.854 72.362 35.019C72.362 34.4791 72.4699 34.0039 72.6859 33.5936C72.9019 33.1761 73.197 32.8557 73.5714 32.6326C73.9529 32.4022 74.392 32.287 74.8888 32.287C75.6015 32.287 76.1594 32.5174 76.5625 32.9781C76.9656 33.4316 77.1672 34.0579 77.1672 34.857V35.1918H73.215C73.2438 35.7893 73.4166 36.2464 73.7334 36.5631C74.0501 36.8727 74.4892 37.0275 75.0507 37.0275C75.3675 37.0275 75.6698 36.9807 75.9578 36.8871C76.2458 36.7863 76.5193 36.6243 76.7785 36.4012L77.0808 37.0167C76.8433 37.2398 76.5409 37.4162 76.1738 37.5458C75.8066 37.6682 75.4323 37.7294 75.0507 37.7294ZM74.9104 32.9349C74.4136 32.9349 74.0213 33.0897 73.7334 33.3992C73.4454 33.7088 73.2762 34.1155 73.2258 34.6194H76.4113C76.3897 34.0867 76.2494 33.6728 75.9902 33.3776C75.7382 33.0825 75.3783 32.9349 74.9104 32.9349Z" fill="white"/>
<path d="M84.6961 37.6322V32.3842H85.5491V33.3236C85.8299 32.6901 86.4058 32.341 87.2769 32.2762L87.59 32.2438L87.6548 32.9997L87.1041 33.0645C86.6074 33.1077 86.2294 33.2661 85.9703 33.5396C85.7111 33.806 85.5815 34.1731 85.5815 34.641V37.6322H84.6961Z" fill="white"/>
<path d="M96.7002 37.6322L94.4434 32.3842H95.3937L97.1322 36.6387L98.8923 32.3842H99.7886L97.5209 37.6322H96.7002Z" fill="white"/>
<path d="M106.868 31.0776V30.095H107.948V31.0776H106.868ZM106.976 37.6322V32.3842H107.851V37.6322H106.976Z" fill="white"/>
<path d="M117.974 37.7294C117.448 37.7294 116.995 37.6178 116.613 37.3946C116.232 37.1642 115.936 36.8439 115.728 36.4336C115.526 36.016 115.425 35.5301 115.425 34.9758C115.425 34.1407 115.652 33.4856 116.106 33.0105C116.559 32.5282 117.182 32.287 117.974 32.287C118.298 32.287 118.618 32.3446 118.935 32.4598C119.251 32.575 119.514 32.7369 119.723 32.9457L119.421 33.5828C119.212 33.3812 118.982 33.2337 118.73 33.1401C118.485 33.0465 118.251 32.9997 118.028 32.9997C117.481 32.9997 117.059 33.1725 116.764 33.518C116.469 33.8564 116.322 34.3459 116.322 34.9866C116.322 35.6129 116.469 36.1096 116.764 36.4768C117.059 36.8367 117.481 37.0167 118.028 37.0167C118.251 37.0167 118.485 36.9699 118.73 36.8763C118.982 36.7827 119.212 36.6315 119.421 36.4228L119.723 37.0599C119.514 37.2686 119.248 37.4342 118.924 37.5566C118.607 37.6718 118.29 37.7294 117.974 37.7294Z" fill="white"/>
<path d="M129.27 37.7294C128.442 37.7294 127.787 37.4882 127.305 37.0059C126.822 36.5163 126.581 35.854 126.581 35.019C126.581 34.4791 126.689 34.0039 126.905 33.5936C127.121 33.1761 127.416 32.8557 127.791 32.6326C128.172 32.4022 128.611 32.287 129.108 32.287C129.821 32.287 130.379 32.5174 130.782 32.9781C131.185 33.4316 131.387 34.0579 131.387 34.857V35.1918H127.434C127.463 35.7893 127.636 36.2464 127.953 36.5631C128.269 36.8727 128.709 37.0275 129.27 37.0275C129.587 37.0275 129.889 36.9807 130.177 36.8871C130.465 36.7863 130.739 36.6243 130.998 36.4012L131.3 37.0167C131.063 37.2398 130.76 37.4162 130.393 37.5458C130.026 37.6682 129.652 37.7294 129.27 37.7294ZM129.13 32.9349C128.633 32.9349 128.241 33.0897 127.953 33.3992C127.665 33.7088 127.496 34.1155 127.445 34.6194H130.631C130.609 34.0867 130.469 33.6728 130.209 33.3776C129.958 33.0825 129.598 32.9349 129.13 32.9349Z" fill="white"/>
<path d="M140.686 37.7294C140.276 37.7294 139.887 37.6718 139.52 37.5566C139.153 37.4414 138.851 37.2794 138.613 37.0707L138.894 36.4552C139.153 36.6639 139.437 36.8187 139.747 36.9195C140.064 37.0131 140.384 37.0599 140.708 37.0599C141.118 37.0599 141.428 36.9843 141.637 36.8331C141.845 36.6819 141.95 36.4768 141.95 36.2176C141.95 36.016 141.881 35.8576 141.745 35.7425C141.608 35.6201 141.392 35.5265 141.097 35.4617L140.114 35.2457C139.221 35.0514 138.775 34.5906 138.775 33.8636C138.775 33.3884 138.962 33.0069 139.337 32.7189C139.718 32.431 140.215 32.287 140.827 32.287C141.187 32.287 141.529 32.3446 141.853 32.4598C142.184 32.5678 142.457 32.7297 142.673 32.9457L142.382 33.5612C142.173 33.3668 141.928 33.2193 141.647 33.1185C141.374 33.0105 141.1 32.9565 140.827 32.9565C140.424 32.9565 140.118 33.0357 139.909 33.1941C139.7 33.3524 139.596 33.5612 139.596 33.8204C139.596 34.2235 139.862 34.4827 140.395 34.5978L141.377 34.803C141.838 34.9038 142.187 35.0658 142.425 35.2889C142.662 35.5049 142.781 35.8001 142.781 36.1744C142.781 36.6567 142.59 37.0383 142.209 37.319C141.827 37.5926 141.32 37.7294 140.686 37.7294Z" fill="white"/>
</svg>
