<svg width="16" height="16" viewBox="0 0 16 16" fill="none" xmlns="http://www.w3.org/2000/svg">
<path d="M8 2.6469C9.14443 2.6469 10.242 3.06333 11.0512 3.80459C11.8604 4.54583 12.315 5.55119 12.315 6.59947C12.315 8.22093 12.6707 9.43511 13.1319 10.328C13.7211 11.4688 14.0157 12.0392 13.9994 12.1695C13.9803 12.3216 13.9559 12.3634 13.8346 12.4522C13.7306 12.5283 13.2135 12.5283 12.1793 12.5283H3.82066C2.78644 12.5283 2.26934 12.5283 2.16538 12.4522C2.04413 12.3634 2.01976 12.3216 2.00065 12.1695C1.98426 12.0392 2.27888 11.4688 2.86814 10.328C3.32934 9.43511 3.685 8.22093 3.685 6.59947C3.685 5.55119 4.13962 4.54583 4.94883 3.80459C5.75805 3.06333 6.85557 2.6469 8 2.6469ZM8 2.6469V1M5.88565 14.1752C6.44996 14.6885 7.19126 15 8.0032 15C8.81505 15 9.55635 14.6885 10.1207 14.1752" stroke="#495057" stroke-linecap="round" stroke-linejoin="round"/>
</svg>
