<svg width="1150" height="307" viewBox="0 0 1150 307" fill="none" xmlns="http://www.w3.org/2000/svg">
<rect x="1" y="1" width="1148" height="305" rx="9" fill="#CC5B5B" stroke="#4E0000" stroke-width="2" stroke-dasharray="10 10"/>
<path d="M457.216 167L454.016 161.44H452.276V167H449.996V153.1H454.796C455.863 153.1 456.763 153.287 457.496 153.66C458.243 154.033 458.796 154.533 459.156 155.16C459.529 155.787 459.716 156.487 459.716 157.26C459.716 158.167 459.449 158.993 458.916 159.74C458.396 160.473 457.589 160.973 456.496 161.24L459.936 167H457.216ZM452.276 159.62H454.796C455.649 159.62 456.289 159.407 456.716 158.98C457.156 158.553 457.376 157.98 457.376 157.26C457.376 156.54 457.163 155.98 456.736 155.58C456.309 155.167 455.663 154.96 454.796 154.96H452.276V159.62ZM472.733 161.22C472.733 161.633 472.706 162.007 472.653 162.34H464.233C464.299 163.22 464.626 163.927 465.213 164.46C465.799 164.993 466.519 165.26 467.373 165.26C468.599 165.26 469.466 164.747 469.973 163.72H472.433C472.099 164.733 471.493 165.567 470.613 166.22C469.746 166.86 468.666 167.18 467.373 167.18C466.319 167.18 465.373 166.947 464.533 166.48C463.706 166 463.053 165.333 462.573 164.48C462.106 163.613 461.873 162.613 461.873 161.48C461.873 160.347 462.099 159.353 462.553 158.5C463.019 157.633 463.666 156.967 464.493 156.5C465.333 156.033 466.293 155.8 467.373 155.8C468.413 155.8 469.339 156.027 470.153 156.48C470.966 156.933 471.599 157.573 472.053 158.4C472.506 159.213 472.733 160.153 472.733 161.22ZM470.353 160.5C470.339 159.66 470.039 158.987 469.453 158.48C468.866 157.973 468.139 157.72 467.273 157.72C466.486 157.72 465.813 157.973 465.253 158.48C464.693 158.973 464.359 159.647 464.253 160.5H470.353ZM482.432 153.1V161.96C482.432 163.013 482.705 163.807 483.252 164.34C483.812 164.873 484.585 165.14 485.572 165.14C486.572 165.14 487.345 164.873 487.892 164.34C488.452 163.807 488.732 163.013 488.732 161.96V153.1H491.012V161.92C491.012 163.053 490.765 164.013 490.272 164.8C489.779 165.587 489.119 166.173 488.292 166.56C487.465 166.947 486.552 167.14 485.552 167.14C484.552 167.14 483.639 166.947 482.812 166.56C481.999 166.173 481.352 165.587 480.872 164.8C480.392 164.013 480.152 163.053 480.152 161.92V153.1H482.432ZM496.26 157.6C496.647 157.093 497.174 156.667 497.84 156.32C498.507 155.973 499.26 155.8 500.1 155.8C501.06 155.8 501.934 156.04 502.72 156.52C503.52 156.987 504.147 157.647 504.6 158.5C505.054 159.353 505.28 160.333 505.28 161.44C505.28 162.547 505.054 163.54 504.6 164.42C504.147 165.287 503.52 165.967 502.72 166.46C501.934 166.94 501.06 167.18 500.1 167.18C499.26 167.18 498.514 167.013 497.86 166.68C497.207 166.333 496.674 165.907 496.26 165.4V172.24H493.98V155.98H496.26V157.6ZM502.96 161.44C502.96 160.68 502.8 160.027 502.48 159.48C502.174 158.92 501.76 158.5 501.24 158.22C500.734 157.927 500.187 157.78 499.6 157.78C499.027 157.78 498.48 157.927 497.96 158.22C497.454 158.513 497.04 158.94 496.72 159.5C496.414 160.06 496.26 160.72 496.26 161.48C496.26 162.24 496.414 162.907 496.72 163.48C497.04 164.04 497.454 164.467 497.96 164.76C498.48 165.053 499.027 165.2 499.6 165.2C500.187 165.2 500.734 165.053 501.24 164.76C501.76 164.453 502.174 164.013 502.48 163.44C502.8 162.867 502.96 162.2 502.96 161.44ZM509.815 152.2V167H507.535V152.2H509.815ZM517.589 167.18C516.549 167.18 515.609 166.947 514.769 166.48C513.929 166 513.269 165.333 512.789 164.48C512.309 163.613 512.069 162.613 512.069 161.48C512.069 160.36 512.315 159.367 512.809 158.5C513.302 157.633 513.975 156.967 514.829 156.5C515.682 156.033 516.635 155.8 517.689 155.8C518.742 155.8 519.695 156.033 520.549 156.5C521.402 156.967 522.075 157.633 522.569 158.5C523.062 159.367 523.309 160.36 523.309 161.48C523.309 162.6 523.055 163.593 522.549 164.46C522.042 165.327 521.349 166 520.469 166.48C519.602 166.947 518.642 167.18 517.589 167.18ZM517.589 165.2C518.175 165.2 518.722 165.06 519.229 164.78C519.749 164.5 520.169 164.08 520.489 163.52C520.809 162.96 520.969 162.28 520.969 161.48C520.969 160.68 520.815 160.007 520.509 159.46C520.202 158.9 519.795 158.48 519.289 158.2C518.782 157.92 518.235 157.78 517.649 157.78C517.062 157.78 516.515 157.92 516.009 158.2C515.515 158.48 515.122 158.9 514.829 159.46C514.535 160.007 514.389 160.68 514.389 161.48C514.389 162.667 514.689 163.587 515.289 164.24C515.902 164.88 516.669 165.2 517.589 165.2ZM524.803 161.44C524.803 160.333 525.029 159.353 525.483 158.5C525.949 157.647 526.576 156.987 527.363 156.52C528.163 156.04 529.043 155.8 530.003 155.8C530.869 155.8 531.623 155.973 532.263 156.32C532.916 156.653 533.436 157.073 533.823 157.58V155.98H536.123V167H533.823V165.36C533.436 165.88 532.909 166.313 532.243 166.66C531.576 167.007 530.816 167.18 529.963 167.18C529.016 167.18 528.149 166.94 527.363 166.46C526.576 165.967 525.949 165.287 525.483 164.42C525.029 163.54 524.803 162.547 524.803 161.44ZM533.823 161.48C533.823 160.72 533.663 160.06 533.343 159.5C533.036 158.94 532.629 158.513 532.123 158.22C531.616 157.927 531.069 157.78 530.483 157.78C529.896 157.78 529.349 157.927 528.843 158.22C528.336 158.5 527.923 158.92 527.603 159.48C527.296 160.027 527.143 160.68 527.143 161.44C527.143 162.2 527.296 162.867 527.603 163.44C527.923 164.013 528.336 164.453 528.843 164.76C529.363 165.053 529.909 165.2 530.483 165.2C531.069 165.2 531.616 165.053 532.123 164.76C532.629 164.467 533.036 164.04 533.343 163.48C533.663 162.907 533.823 162.24 533.823 161.48ZM538.357 161.44C538.357 160.333 538.584 159.353 539.037 158.5C539.504 157.647 540.131 156.987 540.917 156.52C541.717 156.04 542.604 155.8 543.577 155.8C544.297 155.8 545.004 155.96 545.697 156.28C546.404 156.587 546.964 157 547.377 157.52V152.2H549.677V167H547.377V165.34C547.004 165.873 546.484 166.313 545.817 166.66C545.164 167.007 544.411 167.18 543.557 167.18C542.597 167.18 541.717 166.94 540.917 166.46C540.131 165.967 539.504 165.287 539.037 164.42C538.584 163.54 538.357 162.547 538.357 161.44ZM547.377 161.48C547.377 160.72 547.217 160.06 546.897 159.5C546.591 158.94 546.184 158.513 545.677 158.22C545.171 157.927 544.624 157.78 544.037 157.78C543.451 157.78 542.904 157.927 542.397 158.22C541.891 158.5 541.477 158.92 541.157 159.48C540.851 160.027 540.697 160.68 540.697 161.44C540.697 162.2 540.851 162.867 541.157 163.44C541.477 164.013 541.891 164.453 542.397 164.76C542.917 165.053 543.464 165.2 544.037 165.2C544.624 165.2 545.171 165.053 545.677 164.76C546.184 164.467 546.591 164.04 546.897 163.48C547.217 162.907 547.377 162.24 547.377 161.48ZM568.167 153.1L563.567 161.96V167H561.287V161.96L556.667 153.1H559.207L562.427 159.92L565.647 153.1H568.167ZM574.757 167.18C573.717 167.18 572.777 166.947 571.937 166.48C571.097 166 570.437 165.333 569.957 164.48C569.477 163.613 569.237 162.613 569.237 161.48C569.237 160.36 569.483 159.367 569.977 158.5C570.47 157.633 571.143 156.967 571.997 156.5C572.85 156.033 573.803 155.8 574.857 155.8C575.91 155.8 576.863 156.033 577.717 156.5C578.57 156.967 579.243 157.633 579.737 158.5C580.23 159.367 580.477 160.36 580.477 161.48C580.477 162.6 580.223 163.593 579.717 164.46C579.21 165.327 578.517 166 577.637 166.48C576.77 166.947 575.81 167.18 574.757 167.18ZM574.757 165.2C575.343 165.2 575.89 165.06 576.397 164.78C576.917 164.5 577.337 164.08 577.657 163.52C577.977 162.96 578.137 162.28 578.137 161.48C578.137 160.68 577.983 160.007 577.677 159.46C577.37 158.9 576.963 158.48 576.457 158.2C575.95 157.92 575.403 157.78 574.817 157.78C574.23 157.78 573.683 157.92 573.177 158.2C572.683 158.48 572.29 158.9 571.997 159.46C571.703 160.007 571.557 160.68 571.557 161.48C571.557 162.667 571.857 163.587 572.457 164.24C573.07 164.88 573.837 165.2 574.757 165.2ZM592.71 155.98V167H590.43V165.7C590.07 166.153 589.597 166.513 589.01 166.78C588.437 167.033 587.824 167.16 587.17 167.16C586.304 167.16 585.524 166.98 584.83 166.62C584.15 166.26 583.61 165.727 583.21 165.02C582.824 164.313 582.63 163.46 582.63 162.46V155.98H584.89V162.12C584.89 163.107 585.137 163.867 585.63 164.4C586.124 164.92 586.797 165.18 587.65 165.18C588.504 165.18 589.177 164.92 589.67 164.4C590.177 163.867 590.43 163.107 590.43 162.12V155.98H592.71ZM597.999 157.58C598.332 157.02 598.772 156.587 599.319 156.28C599.879 155.96 600.539 155.8 601.299 155.8V158.16H600.719C599.825 158.16 599.145 158.387 598.679 158.84C598.225 159.293 597.999 160.08 597.999 161.2V167H595.719V155.98H597.999V157.58ZM616.77 153.1V154.96H610.87V159.06H615.47V160.92H610.87V167H608.59V153.1H616.77ZM620.043 154.52C619.629 154.52 619.283 154.38 619.003 154.1C618.723 153.82 618.583 153.473 618.583 153.06C618.583 152.647 618.723 152.3 619.003 152.02C619.283 151.74 619.629 151.6 620.043 151.6C620.443 151.6 620.783 151.74 621.063 152.02C621.343 152.3 621.483 152.647 621.483 153.06C621.483 153.473 621.343 153.82 621.063 154.1C620.783 154.38 620.443 154.52 620.043 154.52ZM621.163 155.98V167H618.883V155.98H621.163ZM626.436 152.2V167H624.156V152.2H626.436ZM639.53 161.22C639.53 161.633 639.503 162.007 639.45 162.34H631.03C631.096 163.22 631.423 163.927 632.01 164.46C632.596 164.993 633.316 165.26 634.17 165.26C635.396 165.26 636.263 164.747 636.77 163.72H639.23C638.896 164.733 638.29 165.567 637.41 166.22C636.543 166.86 635.463 167.18 634.17 167.18C633.116 167.18 632.17 166.947 631.33 166.48C630.503 166 629.85 165.333 629.37 164.48C628.903 163.613 628.67 162.613 628.67 161.48C628.67 160.347 628.896 159.353 629.35 158.5C629.816 157.633 630.463 156.967 631.29 156.5C632.13 156.033 633.09 155.8 634.17 155.8C635.21 155.8 636.136 156.027 636.95 156.48C637.763 156.933 638.396 157.573 638.85 158.4C639.303 159.213 639.53 160.153 639.53 161.22ZM637.15 160.5C637.136 159.66 636.836 158.987 636.25 158.48C635.663 157.973 634.936 157.72 634.07 157.72C633.283 157.72 632.61 157.973 632.05 158.48C631.49 158.973 631.156 159.647 631.05 160.5H637.15ZM645.773 167.18C644.907 167.18 644.127 167.027 643.433 166.72C642.753 166.4 642.213 165.973 641.813 165.44C641.413 164.893 641.2 164.287 641.173 163.62H643.533C643.573 164.087 643.793 164.48 644.193 164.8C644.607 165.107 645.12 165.26 645.733 165.26C646.373 165.26 646.867 165.14 647.213 164.9C647.573 164.647 647.753 164.327 647.753 163.94C647.753 163.527 647.553 163.22 647.153 163.02C646.767 162.82 646.147 162.6 645.293 162.36C644.467 162.133 643.793 161.913 643.273 161.7C642.753 161.487 642.3 161.16 641.913 160.72C641.54 160.28 641.353 159.7 641.353 158.98C641.353 158.393 641.527 157.86 641.873 157.38C642.22 156.887 642.713 156.5 643.353 156.22C644.007 155.94 644.753 155.8 645.593 155.8C646.847 155.8 647.853 156.12 648.613 156.76C649.387 157.387 649.8 158.247 649.853 159.34H647.573C647.533 158.847 647.333 158.453 646.973 158.16C646.613 157.867 646.127 157.72 645.513 157.72C644.913 157.72 644.453 157.833 644.133 158.06C643.813 158.287 643.653 158.587 643.653 158.96C643.653 159.253 643.76 159.5 643.973 159.7C644.187 159.9 644.447 160.06 644.753 160.18C645.06 160.287 645.513 160.427 646.113 160.6C646.913 160.813 647.567 161.033 648.073 161.26C648.593 161.473 649.04 161.793 649.413 162.22C649.787 162.647 649.98 163.213 649.993 163.92C649.993 164.547 649.82 165.107 649.473 165.6C649.127 166.093 648.633 166.48 647.993 166.76C647.367 167.04 646.627 167.18 645.773 167.18ZM663.352 155.8C664.192 155.8 664.939 155.98 665.592 156.34C666.259 156.7 666.779 157.233 667.152 157.94C667.539 158.647 667.732 159.5 667.732 160.5V167H665.472V160.84C665.472 159.853 665.226 159.1 664.732 158.58C664.239 158.047 663.566 157.78 662.712 157.78C661.859 157.78 661.179 158.047 660.672 158.58C660.179 159.1 659.932 159.853 659.932 160.84V167H657.652V152.2H659.932V157.26C660.319 156.793 660.806 156.433 661.392 156.18C661.992 155.927 662.646 155.8 663.352 155.8ZM680.741 161.22C680.741 161.633 680.714 162.007 680.661 162.34H672.241C672.307 163.22 672.634 163.927 673.221 164.46C673.807 164.993 674.527 165.26 675.381 165.26C676.607 165.26 677.474 164.747 677.981 163.72H680.441C680.107 164.733 679.501 165.567 678.621 166.22C677.754 166.86 676.674 167.18 675.381 167.18C674.327 167.18 673.381 166.947 672.541 166.48C671.714 166 671.061 165.333 670.581 164.48C670.114 163.613 669.881 162.613 669.881 161.48C669.881 160.347 670.107 159.353 670.561 158.5C671.027 157.633 671.674 156.967 672.501 156.5C673.341 156.033 674.301 155.8 675.381 155.8C676.421 155.8 677.347 156.027 678.161 156.48C678.974 156.933 679.607 157.573 680.061 158.4C680.514 159.213 680.741 160.153 680.741 161.22ZM678.361 160.5C678.347 159.66 678.047 158.987 677.461 158.48C676.874 157.973 676.147 157.72 675.281 157.72C674.494 157.72 673.821 157.973 673.261 158.48C672.701 158.973 672.367 159.647 672.261 160.5H678.361ZM685.264 157.58C685.598 157.02 686.038 156.587 686.584 156.28C687.144 155.96 687.804 155.8 688.564 155.8V158.16H687.984C687.091 158.16 686.411 158.387 685.944 158.84C685.491 159.293 685.264 160.08 685.264 161.2V167H682.984V155.98H685.264V157.58ZM700.76 161.22C700.76 161.633 700.733 162.007 700.68 162.34H692.26C692.327 163.22 692.653 163.927 693.24 164.46C693.827 164.993 694.547 165.26 695.4 165.26C696.627 165.26 697.493 164.747 698 163.72H700.46C700.127 164.733 699.52 165.567 698.64 166.22C697.773 166.86 696.693 167.18 695.4 167.18C694.347 167.18 693.4 166.947 692.56 166.48C691.733 166 691.08 165.333 690.6 164.48C690.133 163.613 689.9 162.613 689.9 161.48C689.9 160.347 690.127 159.353 690.58 158.5C691.047 157.633 691.693 156.967 692.52 156.5C693.36 156.033 694.32 155.8 695.4 155.8C696.44 155.8 697.367 156.027 698.18 156.48C698.993 156.933 699.627 157.573 700.08 158.4C700.533 159.213 700.76 160.153 700.76 161.22ZM698.38 160.5C698.367 159.66 698.067 158.987 697.48 158.48C696.893 157.973 696.167 157.72 695.3 157.72C694.513 157.72 693.84 157.973 693.28 158.48C692.72 158.973 692.387 159.647 692.28 160.5H698.38Z" fill="black"/>
<path d="M571.535 208.126C570.371 208.126 569.297 207.856 568.313 207.316C567.341 206.764 566.567 206.002 565.991 205.03C565.427 204.046 565.145 202.942 565.145 201.718C565.145 200.494 565.427 199.396 565.991 198.424C566.567 197.452 567.341 196.696 568.313 196.156C569.297 195.604 570.371 195.328 571.535 195.328C572.711 195.328 573.785 195.604 574.757 196.156C575.741 196.696 576.515 197.452 577.079 198.424C577.643 199.396 577.925 200.494 577.925 201.718C577.925 202.942 577.643 204.046 577.079 205.03C576.515 206.002 575.741 206.764 574.757 207.316C573.785 207.856 572.711 208.126 571.535 208.126ZM571.535 206.344C572.363 206.344 573.101 206.158 573.749 205.786C574.397 205.402 574.901 204.862 575.261 204.166C575.633 203.458 575.819 202.642 575.819 201.718C575.819 200.794 575.633 199.984 575.261 199.288C574.901 198.592 574.397 198.058 573.749 197.686C573.101 197.314 572.363 197.128 571.535 197.128C570.707 197.128 569.969 197.314 569.321 197.686C568.673 198.058 568.163 198.592 567.791 199.288C567.431 199.984 567.251 200.794 567.251 201.718C567.251 202.642 567.431 203.458 567.791 204.166C568.163 204.862 568.673 205.402 569.321 205.786C569.969 206.158 570.707 206.344 571.535 206.344ZM581.996 199.522C582.296 199.018 582.692 198.628 583.184 198.352C583.688 198.064 584.282 197.92 584.966 197.92V200.044H584.444C583.64 200.044 583.028 200.248 582.608 200.656C582.2 201.064 581.996 201.772 581.996 202.78V208H579.944V198.082H581.996V199.522Z" fill="black"/>
<path d="M545.276 248L542.396 242.996H540.83V248H538.778V235.49H543.098C544.058 235.49 544.868 235.658 545.528 235.994C546.2 236.33 546.698 236.78 547.022 237.344C547.358 237.908 547.526 238.538 547.526 239.234C547.526 240.05 547.286 240.794 546.806 241.466C546.338 242.126 545.612 242.576 544.628 242.816L547.724 248H545.276ZM540.83 241.358H543.098C543.866 241.358 544.442 241.166 544.826 240.782C545.222 240.398 545.42 239.882 545.42 239.234C545.42 238.586 545.228 238.082 544.844 237.722C544.46 237.35 543.878 237.164 543.098 237.164H540.83V241.358ZM559.241 242.798C559.241 243.17 559.217 243.506 559.169 243.806H551.591C551.651 244.598 551.945 245.234 552.473 245.714C553.001 246.194 553.649 246.434 554.417 246.434C555.521 246.434 556.301 245.972 556.757 245.048H558.971C558.671 245.96 558.125 246.71 557.333 247.298C556.553 247.874 555.581 248.162 554.417 248.162C553.469 248.162 552.617 247.952 551.861 247.532C551.117 247.1 550.529 246.5 550.097 245.732C549.677 244.952 549.467 244.052 549.467 243.032C549.467 242.012 549.671 241.118 550.079 240.35C550.499 239.57 551.081 238.97 551.825 238.55C552.581 238.13 553.445 237.92 554.417 237.92C555.353 237.92 556.187 238.124 556.919 238.532C557.651 238.94 558.221 239.516 558.629 240.26C559.037 240.992 559.241 241.838 559.241 242.798ZM557.099 242.15C557.087 241.394 556.817 240.788 556.289 240.332C555.761 239.876 555.107 239.648 554.327 239.648C553.619 239.648 553.013 239.876 552.509 240.332C552.005 240.776 551.705 241.382 551.609 242.15H557.099ZM573.266 237.92C574.046 237.92 574.742 238.082 575.354 238.406C575.978 238.73 576.464 239.21 576.812 239.846C577.172 240.482 577.352 241.25 577.352 242.15V248H575.318V242.456C575.318 241.568 575.096 240.89 574.652 240.422C574.208 239.942 573.602 239.702 572.834 239.702C572.066 239.702 571.454 239.942 570.998 240.422C570.554 240.89 570.332 241.568 570.332 242.456V248H568.298V242.456C568.298 241.568 568.076 240.89 567.632 240.422C567.188 239.942 566.582 239.702 565.814 239.702C565.046 239.702 564.434 239.942 563.978 240.422C563.534 240.89 563.312 241.568 563.312 242.456V248H561.26V238.082H563.312V239.216C563.648 238.808 564.074 238.49 564.59 238.262C565.106 238.034 565.658 237.92 566.246 237.92C567.038 237.92 567.746 238.088 568.37 238.424C568.994 238.76 569.474 239.246 569.81 239.882C570.11 239.282 570.578 238.808 571.214 238.46C571.85 238.1 572.534 237.92 573.266 237.92ZM584.265 248.162C583.329 248.162 582.483 247.952 581.727 247.532C580.971 247.1 580.377 246.5 579.945 245.732C579.513 244.952 579.297 244.052 579.297 243.032C579.297 242.024 579.519 241.13 579.963 240.35C580.407 239.57 581.013 238.97 581.781 238.55C582.549 238.13 583.407 237.92 584.355 237.92C585.303 237.92 586.161 238.13 586.929 238.55C587.697 238.97 588.303 239.57 588.747 240.35C589.191 241.13 589.413 242.024 589.413 243.032C589.413 244.04 589.185 244.934 588.729 245.714C588.273 246.494 587.649 247.1 586.857 247.532C586.077 247.952 585.213 248.162 584.265 248.162ZM584.265 246.38C584.793 246.38 585.285 246.254 585.741 246.002C586.209 245.75 586.587 245.372 586.875 244.868C587.163 244.364 587.307 243.752 587.307 243.032C587.307 242.312 587.169 241.706 586.893 241.214C586.617 240.71 586.251 240.332 585.795 240.08C585.339 239.828 584.847 239.702 584.319 239.702C583.791 239.702 583.299 239.828 582.843 240.08C582.399 240.332 582.045 240.71 581.781 241.214C581.517 241.706 581.385 242.312 581.385 243.032C581.385 244.1 581.655 244.928 582.195 245.516C582.747 246.092 583.437 246.38 584.265 246.38ZM595.276 246.164L598.084 238.082H600.262L596.482 248H594.034L590.272 238.082H592.468L595.276 246.164ZM610.903 242.798C610.903 243.17 610.879 243.506 610.831 243.806H603.253C603.313 244.598 603.607 245.234 604.135 245.714C604.663 246.194 605.311 246.434 606.079 246.434C607.183 246.434 607.963 245.972 608.419 245.048H610.633C610.333 245.96 609.787 246.71 608.995 247.298C608.215 247.874 607.243 248.162 606.079 248.162C605.131 248.162 604.279 247.952 603.523 247.532C602.779 247.1 602.191 246.5 601.759 245.732C601.339 244.952 601.129 244.052 601.129 243.032C601.129 242.012 601.333 241.118 601.741 240.35C602.161 239.57 602.743 238.97 603.487 238.55C604.243 238.13 605.107 237.92 606.079 237.92C607.015 237.92 607.849 238.124 608.581 238.532C609.313 238.94 609.883 239.516 610.291 240.26C610.699 240.992 610.903 241.838 610.903 242.798ZM608.761 242.15C608.749 241.394 608.479 240.788 607.951 240.332C607.423 239.876 606.769 239.648 605.989 239.648C605.281 239.648 604.675 239.876 604.171 240.332C603.667 240.776 603.367 241.382 603.271 242.15H608.761Z" fill="black"/>
<path d="M568.333 88.6666V108.667" stroke="#0A1F44" stroke-width="5" stroke-linecap="round" stroke-linejoin="round"/>
<path d="M581.667 88.6666V108.667" stroke="#0A1F44" stroke-width="5" stroke-linecap="round" stroke-linejoin="round"/>
<path d="M548.333 75.3334H601.667" stroke="#0A1F44" stroke-width="5" stroke-linecap="round" stroke-linejoin="round"/>
<path d="M555 75.3334H575H595V112C595 117.523 590.523 122 585 122H565C559.477 122 555 117.523 555 112V75.3334Z" stroke="#0A1F44" stroke-width="5" stroke-linecap="round" stroke-linejoin="round"/>
<path d="M565 68.6667C565 64.9848 567.985 62 571.667 62H578.333C582.015 62 585 64.9848 585 68.6667V75.3333H565V68.6667Z" stroke="#0A1F44" stroke-width="5" stroke-linecap="round" stroke-linejoin="round"/>
</svg>
