<svg width="24" height="24" viewBox="0 0 24 24" fill="none" xmlns="http://www.w3.org/2000/svg">
<g clip-path="url(#clip0_416_1384)">
<mask id="path-1-outside-1_416_1384" maskUnits="userSpaceOnUse" x="-0.0388184" y="-0.0278931" width="24" height="24" fill="black">
<rect fill="white" x="-0.0388184" y="-0.0278931" width="24" height="24"/>
<path d="M19.2048 8.53574L18.7656 8.81938C18.8088 8.50908 18.8328 8.1915 18.8328 7.8715C18.8328 4.06544 15.768 0.972107 12.0024 0.972107C8.23677 0.972107 5.17197 4.06786 5.17197 7.8715C5.17197 8.24483 5.20317 8.61332 5.26077 8.96968L4.79997 8.6715C4.68957 8.59877 4.54077 8.63271 4.46877 8.74423L0.998374 14.2012C0.964774 14.2545 0.952774 14.32 0.967174 14.383C0.981574 14.446 1.01757 14.5018 1.07277 14.5357L4.11837 16.5091C4.15917 16.5357 4.20237 16.5479 4.24797 16.5479C4.32717 16.5479 4.40397 16.5091 4.44957 16.4363L4.82397 15.8497L5.46957 16.2618L5.84397 18.4291C5.85357 18.4776 5.87757 18.5212 5.91117 18.5551C5.81997 18.9212 5.93757 19.3212 6.24237 19.5685H6.24477L6.24957 19.5757C6.38877 19.6873 6.55197 19.7551 6.72477 19.7794L6.64317 19.8836C6.47997 20.0897 6.40797 20.3491 6.43677 20.6109C6.46557 20.8727 6.59517 21.1079 6.79677 21.2679H6.79917V21.2727C6.98157 21.4157 7.19517 21.486 7.40877 21.486C7.53117 21.486 7.65117 21.457 7.76397 21.4133C7.80717 21.646 7.92717 21.8521 8.11197 22H8.11437C8.29437 22.1454 8.50797 22.2157 8.71917 22.2157C8.91117 22.2157 9.09837 22.1527 9.26157 22.0436C9.31917 22.2303 9.42957 22.3951 9.58077 22.5163H9.58317L9.58797 22.5236C9.76317 22.6642 9.97437 22.737 10.1928 22.737C10.2312 22.737 10.2696 22.737 10.3056 22.7297C10.4616 22.7127 10.6056 22.6545 10.7328 22.5673L11.2752 23.0133C11.472 23.1782 11.724 23.2703 11.9856 23.2703C12.324 23.2703 12.6408 23.1176 12.8568 22.8533C13.0104 22.6618 13.0896 22.4315 13.1016 22.2012C13.272 22.3006 13.4664 22.3563 13.6632 22.3563C14.004 22.3563 14.3208 22.2036 14.5344 21.9394C14.7048 21.7285 14.784 21.4715 14.7816 21.217C14.8992 21.2582 15.0216 21.28 15.144 21.28C15.4824 21.28 15.7992 21.1273 16.0128 20.863C16.1784 20.6594 16.26 20.4097 16.26 20.1503C16.3848 20.1988 16.5192 20.2254 16.6536 20.2254C16.9896 20.2254 17.3064 20.0727 17.5224 19.8085C17.712 19.5733 17.8008 19.2776 17.7696 18.977C17.7528 18.8218 17.7072 18.6763 17.6352 18.543L18.7008 16.0606L19.1928 15.7454L19.5456 16.3006C19.5912 16.3733 19.668 16.4121 19.7472 16.4121C19.7904 16.4121 19.836 16.4 19.8768 16.3733L22.9224 14.4C22.9752 14.366 23.0136 14.3103 23.028 14.2473C23.0424 14.1842 23.028 14.1188 22.9968 14.0654L19.5312 8.60847C19.4592 8.49453 19.3104 8.46302 19.2 8.53574H19.2048ZM17.1576 19.5006C16.9392 19.7697 16.5264 19.8133 16.2552 19.5927L13.8144 17.5806L13.7664 17.5418C13.7664 17.5418 13.7616 17.5418 13.7592 17.537C13.7088 17.4982 13.6488 17.4812 13.5912 17.486C13.5312 17.4933 13.4712 17.5224 13.4304 17.5733C13.38 17.6363 13.3704 17.7139 13.3872 17.7867C13.392 17.806 13.3968 17.8254 13.4064 17.8448C13.4208 17.8715 13.44 17.8957 13.464 17.9151L15.5616 19.6436C15.6936 19.7527 15.7776 19.9079 15.7944 20.08C15.8112 20.2521 15.7608 20.4218 15.6528 20.5551C15.4368 20.8218 15.0216 20.8679 14.7504 20.6473L14.4144 20.3709C14.4144 20.3709 14.3952 20.3539 14.3856 20.3442L12.1152 18.4751C12.012 18.3903 11.8608 18.4073 11.7768 18.5091C11.6928 18.6133 11.7096 18.766 11.8104 18.8509L14.0808 20.72L14.088 20.7273C14.3544 20.9551 14.3928 21.3624 14.172 21.6315C13.956 21.9006 13.5336 21.9467 13.2672 21.7236L11.8176 20.526C11.7576 20.3588 11.6544 20.2036 11.5056 20.0848C11.3664 19.9733 11.2056 19.9103 11.04 19.886L10.9824 19.8376C11.0232 19.7067 11.04 19.566 11.0232 19.4254C10.9944 19.1636 10.8648 18.9285 10.656 18.7636C10.4952 18.6351 10.3056 18.5673 10.116 18.5527C10.2528 18.1648 10.1448 17.7163 9.80637 17.4448C9.38397 17.1054 8.76717 17.1782 8.43357 17.6048L8.39997 17.646C8.33757 17.4812 8.23677 17.3333 8.09517 17.2194C7.67277 16.8824 7.05837 16.9527 6.72237 17.3794L6.25437 17.9757L5.92557 16.0679C5.91357 16 5.87517 15.9418 5.81757 15.9054L5.08557 15.44L7.30077 11.9539L8.75757 12.6715C8.78637 12.686 8.81517 12.6933 8.84637 12.6957L12.2808 12.9309L10.1832 14.6691C10.0104 14.8121 9.90237 15.0254 9.88557 15.2509C9.87117 15.4763 9.95037 15.7018 10.104 15.8667C10.5072 16.3006 11.1552 16.4145 11.6784 16.143L13.2384 15.3357L14.8704 16.7394L14.8752 16.7491V16.7563C14.8752 16.7563 14.8872 16.766 14.8896 16.7709C14.8896 16.7733 14.8944 16.7757 14.8968 16.7782C14.9088 16.7951 14.9184 16.8121 14.9352 16.8242L17.0712 18.5867C17.2032 18.6957 17.2872 18.8509 17.304 19.023C17.3208 19.1951 17.2704 19.3648 17.1624 19.4982L17.1576 19.5006ZM12.4896 22.5503C12.2736 22.817 11.8464 22.8606 11.5872 22.6424L11.0784 22.223L11.664 21.4788C11.7384 21.3842 11.7912 21.2776 11.8248 21.166L12.3984 21.6388C12.6696 21.8642 12.7104 22.2739 12.4896 22.5479V22.5503ZM10.2576 22.2497C10.128 22.2642 9.99597 22.2279 9.89277 22.143H9.89037C9.78717 22.0582 9.71997 21.937 9.70557 21.8036C9.69117 21.6703 9.72717 21.5394 9.81117 21.4351L10.5072 20.5479C10.6056 20.4242 10.7496 20.3588 10.896 20.3588C11.0064 20.3588 11.1168 20.3951 11.208 20.4703C11.4216 20.6424 11.4576 20.9576 11.2872 21.1757L10.5912 22.063C10.5096 22.1673 10.3896 22.2351 10.2576 22.2497ZM8.41437 21.6218H8.41197C8.30877 21.537 8.24157 21.4157 8.22717 21.2824C8.21277 21.1491 8.24877 21.0182 8.33277 20.9139L9.65757 19.2267C9.75597 19.103 9.89997 19.0376 10.0464 19.0376C10.1568 19.0376 10.2672 19.0739 10.3584 19.1491C10.4616 19.2315 10.5288 19.3527 10.5432 19.486C10.5576 19.6194 10.5216 19.7503 10.4376 19.8545L10.128 20.2473L9.43197 21.1345L9.11277 21.5418C8.94237 21.76 8.63037 21.7964 8.41437 21.6218ZM7.09677 20.8897C6.99357 20.8073 6.92637 20.686 6.91197 20.5527C6.89757 20.4194 6.93357 20.2885 7.01757 20.1842L8.80557 17.9079C8.90397 17.7842 9.04797 17.7188 9.19437 17.7188C9.30477 17.7188 9.41517 17.7551 9.50637 17.8303C9.71997 18.0024 9.75597 18.32 9.58557 18.5357L9.27837 18.926L7.95357 20.6133L7.79757 20.8121C7.62717 21.0303 7.31517 21.0667 7.09917 20.8921H7.09677V20.8897ZM6.54477 19.1927H6.54237C6.32637 19.0182 6.29037 18.7006 6.46077 18.4848L7.09197 17.6824C7.19037 17.5588 7.33437 17.4933 7.48077 17.4933C7.59117 17.4933 7.70157 17.5297 7.79277 17.6048C7.89597 17.6873 7.96317 17.8085 7.97757 17.9418C7.99197 18.0751 7.95597 18.206 7.87437 18.3103L7.49277 18.7951L7.24317 19.1127C7.16157 19.217 7.04157 19.2848 6.90957 19.2994C6.77757 19.3139 6.64797 19.2776 6.54477 19.1927ZM5.64717 7.86908C5.64717 4.33211 8.49597 1.45453 11.9976 1.45453C15.4992 1.45453 18.348 4.33211 18.348 7.86908C18.348 8.31514 18.3024 8.7515 18.216 9.17089L16.1568 10.5067C16.104 10.5406 16.0656 10.5963 16.0512 10.6594C16.0368 10.7224 16.0512 10.7879 16.0824 10.8412L16.3224 11.2194L13.2336 12.1527C13.2024 12.1624 13.1736 12.177 13.1496 12.1964L12.8064 12.48L8.91117 12.2133L7.54797 11.5418L7.90797 10.977C7.94157 10.9236 7.95357 10.8582 7.93917 10.7951C7.92477 10.7321 7.88877 10.6763 7.83357 10.6424L5.81037 9.3309C5.70237 8.86059 5.64237 8.37089 5.64237 7.86908H5.64717ZM18.2952 15.7964L17.2872 18.1454L16.032 17.1103L13.4208 14.8654C13.3752 14.8267 13.32 14.8073 13.2648 14.8073C13.2264 14.8073 13.1904 14.817 13.1544 14.8339L11.4504 15.7139C11.1144 15.886 10.7016 15.8133 10.4448 15.537C10.38 15.4691 10.3488 15.377 10.356 15.2848C10.3632 15.1927 10.4064 15.1054 10.4784 15.0448L13.4232 12.606L16.5984 11.6485L18.9432 15.3382L18.3912 15.6897C18.3504 15.7163 18.3192 15.7527 18.3 15.7988L18.2952 15.7964Z"/>
</mask>
<path d="M19.2048 8.53574L18.7656 8.81938C18.8088 8.50908 18.8328 8.1915 18.8328 7.8715C18.8328 4.06544 15.768 0.972107 12.0024 0.972107C8.23677 0.972107 5.17197 4.06786 5.17197 7.8715C5.17197 8.24483 5.20317 8.61332 5.26077 8.96968L4.79997 8.6715C4.68957 8.59877 4.54077 8.63271 4.46877 8.74423L0.998374 14.2012C0.964774 14.2545 0.952774 14.32 0.967174 14.383C0.981574 14.446 1.01757 14.5018 1.07277 14.5357L4.11837 16.5091C4.15917 16.5357 4.20237 16.5479 4.24797 16.5479C4.32717 16.5479 4.40397 16.5091 4.44957 16.4363L4.82397 15.8497L5.46957 16.2618L5.84397 18.4291C5.85357 18.4776 5.87757 18.5212 5.91117 18.5551C5.81997 18.9212 5.93757 19.3212 6.24237 19.5685H6.24477L6.24957 19.5757C6.38877 19.6873 6.55197 19.7551 6.72477 19.7794L6.64317 19.8836C6.47997 20.0897 6.40797 20.3491 6.43677 20.6109C6.46557 20.8727 6.59517 21.1079 6.79677 21.2679H6.79917V21.2727C6.98157 21.4157 7.19517 21.486 7.40877 21.486C7.53117 21.486 7.65117 21.457 7.76397 21.4133C7.80717 21.646 7.92717 21.8521 8.11197 22H8.11437C8.29437 22.1454 8.50797 22.2157 8.71917 22.2157C8.91117 22.2157 9.09837 22.1527 9.26157 22.0436C9.31917 22.2303 9.42957 22.3951 9.58077 22.5163H9.58317L9.58797 22.5236C9.76317 22.6642 9.97437 22.737 10.1928 22.737C10.2312 22.737 10.2696 22.737 10.3056 22.7297C10.4616 22.7127 10.6056 22.6545 10.7328 22.5673L11.2752 23.0133C11.472 23.1782 11.724 23.2703 11.9856 23.2703C12.324 23.2703 12.6408 23.1176 12.8568 22.8533C13.0104 22.6618 13.0896 22.4315 13.1016 22.2012C13.272 22.3006 13.4664 22.3563 13.6632 22.3563C14.004 22.3563 14.3208 22.2036 14.5344 21.9394C14.7048 21.7285 14.784 21.4715 14.7816 21.217C14.8992 21.2582 15.0216 21.28 15.144 21.28C15.4824 21.28 15.7992 21.1273 16.0128 20.863C16.1784 20.6594 16.26 20.4097 16.26 20.1503C16.3848 20.1988 16.5192 20.2254 16.6536 20.2254C16.9896 20.2254 17.3064 20.0727 17.5224 19.8085C17.712 19.5733 17.8008 19.2776 17.7696 18.977C17.7528 18.8218 17.7072 18.6763 17.6352 18.543L18.7008 16.0606L19.1928 15.7454L19.5456 16.3006C19.5912 16.3733 19.668 16.4121 19.7472 16.4121C19.7904 16.4121 19.836 16.4 19.8768 16.3733L22.9224 14.4C22.9752 14.366 23.0136 14.3103 23.028 14.2473C23.0424 14.1842 23.028 14.1188 22.9968 14.0654L19.5312 8.60847C19.4592 8.49453 19.3104 8.46302 19.2 8.53574H19.2048ZM17.1576 19.5006C16.9392 19.7697 16.5264 19.8133 16.2552 19.5927L13.8144 17.5806L13.7664 17.5418C13.7664 17.5418 13.7616 17.5418 13.7592 17.537C13.7088 17.4982 13.6488 17.4812 13.5912 17.486C13.5312 17.4933 13.4712 17.5224 13.4304 17.5733C13.38 17.6363 13.3704 17.7139 13.3872 17.7867C13.392 17.806 13.3968 17.8254 13.4064 17.8448C13.4208 17.8715 13.44 17.8957 13.464 17.9151L15.5616 19.6436C15.6936 19.7527 15.7776 19.9079 15.7944 20.08C15.8112 20.2521 15.7608 20.4218 15.6528 20.5551C15.4368 20.8218 15.0216 20.8679 14.7504 20.6473L14.4144 20.3709C14.4144 20.3709 14.3952 20.3539 14.3856 20.3442L12.1152 18.4751C12.012 18.3903 11.8608 18.4073 11.7768 18.5091C11.6928 18.6133 11.7096 18.766 11.8104 18.8509L14.0808 20.72L14.088 20.7273C14.3544 20.9551 14.3928 21.3624 14.172 21.6315C13.956 21.9006 13.5336 21.9467 13.2672 21.7236L11.8176 20.526C11.7576 20.3588 11.6544 20.2036 11.5056 20.0848C11.3664 19.9733 11.2056 19.9103 11.04 19.886L10.9824 19.8376C11.0232 19.7067 11.04 19.566 11.0232 19.4254C10.9944 19.1636 10.8648 18.9285 10.656 18.7636C10.4952 18.6351 10.3056 18.5673 10.116 18.5527C10.2528 18.1648 10.1448 17.7163 9.80637 17.4448C9.38397 17.1054 8.76717 17.1782 8.43357 17.6048L8.39997 17.646C8.33757 17.4812 8.23677 17.3333 8.09517 17.2194C7.67277 16.8824 7.05837 16.9527 6.72237 17.3794L6.25437 17.9757L5.92557 16.0679C5.91357 16 5.87517 15.9418 5.81757 15.9054L5.08557 15.44L7.30077 11.9539L8.75757 12.6715C8.78637 12.686 8.81517 12.6933 8.84637 12.6957L12.2808 12.9309L10.1832 14.6691C10.0104 14.8121 9.90237 15.0254 9.88557 15.2509C9.87117 15.4763 9.95037 15.7018 10.104 15.8667C10.5072 16.3006 11.1552 16.4145 11.6784 16.143L13.2384 15.3357L14.8704 16.7394L14.8752 16.7491V16.7563C14.8752 16.7563 14.8872 16.766 14.8896 16.7709C14.8896 16.7733 14.8944 16.7757 14.8968 16.7782C14.9088 16.7951 14.9184 16.8121 14.9352 16.8242L17.0712 18.5867C17.2032 18.6957 17.2872 18.8509 17.304 19.023C17.3208 19.1951 17.2704 19.3648 17.1624 19.4982L17.1576 19.5006ZM12.4896 22.5503C12.2736 22.817 11.8464 22.8606 11.5872 22.6424L11.0784 22.223L11.664 21.4788C11.7384 21.3842 11.7912 21.2776 11.8248 21.166L12.3984 21.6388C12.6696 21.8642 12.7104 22.2739 12.4896 22.5479V22.5503ZM10.2576 22.2497C10.128 22.2642 9.99597 22.2279 9.89277 22.143H9.89037C9.78717 22.0582 9.71997 21.937 9.70557 21.8036C9.69117 21.6703 9.72717 21.5394 9.81117 21.4351L10.5072 20.5479C10.6056 20.4242 10.7496 20.3588 10.896 20.3588C11.0064 20.3588 11.1168 20.3951 11.208 20.4703C11.4216 20.6424 11.4576 20.9576 11.2872 21.1757L10.5912 22.063C10.5096 22.1673 10.3896 22.2351 10.2576 22.2497ZM8.41437 21.6218H8.41197C8.30877 21.537 8.24157 21.4157 8.22717 21.2824C8.21277 21.1491 8.24877 21.0182 8.33277 20.9139L9.65757 19.2267C9.75597 19.103 9.89997 19.0376 10.0464 19.0376C10.1568 19.0376 10.2672 19.0739 10.3584 19.1491C10.4616 19.2315 10.5288 19.3527 10.5432 19.486C10.5576 19.6194 10.5216 19.7503 10.4376 19.8545L10.128 20.2473L9.43197 21.1345L9.11277 21.5418C8.94237 21.76 8.63037 21.7964 8.41437 21.6218ZM7.09677 20.8897C6.99357 20.8073 6.92637 20.686 6.91197 20.5527C6.89757 20.4194 6.93357 20.2885 7.01757 20.1842L8.80557 17.9079C8.90397 17.7842 9.04797 17.7188 9.19437 17.7188C9.30477 17.7188 9.41517 17.7551 9.50637 17.8303C9.71997 18.0024 9.75597 18.32 9.58557 18.5357L9.27837 18.926L7.95357 20.6133L7.79757 20.8121C7.62717 21.0303 7.31517 21.0667 7.09917 20.8921H7.09677V20.8897ZM6.54477 19.1927H6.54237C6.32637 19.0182 6.29037 18.7006 6.46077 18.4848L7.09197 17.6824C7.19037 17.5588 7.33437 17.4933 7.48077 17.4933C7.59117 17.4933 7.70157 17.5297 7.79277 17.6048C7.89597 17.6873 7.96317 17.8085 7.97757 17.9418C7.99197 18.0751 7.95597 18.206 7.87437 18.3103L7.49277 18.7951L7.24317 19.1127C7.16157 19.217 7.04157 19.2848 6.90957 19.2994C6.77757 19.3139 6.64797 19.2776 6.54477 19.1927ZM5.64717 7.86908C5.64717 4.33211 8.49597 1.45453 11.9976 1.45453C15.4992 1.45453 18.348 4.33211 18.348 7.86908C18.348 8.31514 18.3024 8.7515 18.216 9.17089L16.1568 10.5067C16.104 10.5406 16.0656 10.5963 16.0512 10.6594C16.0368 10.7224 16.0512 10.7879 16.0824 10.8412L16.3224 11.2194L13.2336 12.1527C13.2024 12.1624 13.1736 12.177 13.1496 12.1964L12.8064 12.48L8.91117 12.2133L7.54797 11.5418L7.90797 10.977C7.94157 10.9236 7.95357 10.8582 7.93917 10.7951C7.92477 10.7321 7.88877 10.6763 7.83357 10.6424L5.81037 9.3309C5.70237 8.86059 5.64237 8.37089 5.64237 7.86908H5.64717ZM18.2952 15.7964L17.2872 18.1454L16.032 17.1103L13.4208 14.8654C13.3752 14.8267 13.32 14.8073 13.2648 14.8073C13.2264 14.8073 13.1904 14.817 13.1544 14.8339L11.4504 15.7139C11.1144 15.886 10.7016 15.8133 10.4448 15.537C10.38 15.4691 10.3488 15.377 10.356 15.2848C10.3632 15.1927 10.4064 15.1054 10.4784 15.0448L13.4232 12.606L16.5984 11.6485L18.9432 15.3382L18.3912 15.6897C18.3504 15.7163 18.3192 15.7527 18.3 15.7988L18.2952 15.7964Z" fill="#00266F"/>
<path d="M19.2048 8.53574L18.7656 8.81938C18.8088 8.50908 18.8328 8.1915 18.8328 7.8715C18.8328 4.06544 15.768 0.972107 12.0024 0.972107C8.23677 0.972107 5.17197 4.06786 5.17197 7.8715C5.17197 8.24483 5.20317 8.61332 5.26077 8.96968L4.79997 8.6715C4.68957 8.59877 4.54077 8.63271 4.46877 8.74423L0.998374 14.2012C0.964774 14.2545 0.952774 14.32 0.967174 14.383C0.981574 14.446 1.01757 14.5018 1.07277 14.5357L4.11837 16.5091C4.15917 16.5357 4.20237 16.5479 4.24797 16.5479C4.32717 16.5479 4.40397 16.5091 4.44957 16.4363L4.82397 15.8497L5.46957 16.2618L5.84397 18.4291C5.85357 18.4776 5.87757 18.5212 5.91117 18.5551C5.81997 18.9212 5.93757 19.3212 6.24237 19.5685H6.24477L6.24957 19.5757C6.38877 19.6873 6.55197 19.7551 6.72477 19.7794L6.64317 19.8836C6.47997 20.0897 6.40797 20.3491 6.43677 20.6109C6.46557 20.8727 6.59517 21.1079 6.79677 21.2679H6.79917V21.2727C6.98157 21.4157 7.19517 21.486 7.40877 21.486C7.53117 21.486 7.65117 21.457 7.76397 21.4133C7.80717 21.646 7.92717 21.8521 8.11197 22H8.11437C8.29437 22.1454 8.50797 22.2157 8.71917 22.2157C8.91117 22.2157 9.09837 22.1527 9.26157 22.0436C9.31917 22.2303 9.42957 22.3951 9.58077 22.5163H9.58317L9.58797 22.5236C9.76317 22.6642 9.97437 22.737 10.1928 22.737C10.2312 22.737 10.2696 22.737 10.3056 22.7297C10.4616 22.7127 10.6056 22.6545 10.7328 22.5673L11.2752 23.0133C11.472 23.1782 11.724 23.2703 11.9856 23.2703C12.324 23.2703 12.6408 23.1176 12.8568 22.8533C13.0104 22.6618 13.0896 22.4315 13.1016 22.2012C13.272 22.3006 13.4664 22.3563 13.6632 22.3563C14.004 22.3563 14.3208 22.2036 14.5344 21.9394C14.7048 21.7285 14.784 21.4715 14.7816 21.217C14.8992 21.2582 15.0216 21.28 15.144 21.28C15.4824 21.28 15.7992 21.1273 16.0128 20.863C16.1784 20.6594 16.26 20.4097 16.26 20.1503C16.3848 20.1988 16.5192 20.2254 16.6536 20.2254C16.9896 20.2254 17.3064 20.0727 17.5224 19.8085C17.712 19.5733 17.8008 19.2776 17.7696 18.977C17.7528 18.8218 17.7072 18.6763 17.6352 18.543L18.7008 16.0606L19.1928 15.7454L19.5456 16.3006C19.5912 16.3733 19.668 16.4121 19.7472 16.4121C19.7904 16.4121 19.836 16.4 19.8768 16.3733L22.9224 14.4C22.9752 14.366 23.0136 14.3103 23.028 14.2473C23.0424 14.1842 23.028 14.1188 22.9968 14.0654L19.5312 8.60847C19.4592 8.49453 19.3104 8.46302 19.2 8.53574H19.2048ZM17.1576 19.5006C16.9392 19.7697 16.5264 19.8133 16.2552 19.5927L13.8144 17.5806L13.7664 17.5418C13.7664 17.5418 13.7616 17.5418 13.7592 17.537C13.7088 17.4982 13.6488 17.4812 13.5912 17.486C13.5312 17.4933 13.4712 17.5224 13.4304 17.5733C13.38 17.6363 13.3704 17.7139 13.3872 17.7867C13.392 17.806 13.3968 17.8254 13.4064 17.8448C13.4208 17.8715 13.44 17.8957 13.464 17.9151L15.5616 19.6436C15.6936 19.7527 15.7776 19.9079 15.7944 20.08C15.8112 20.2521 15.7608 20.4218 15.6528 20.5551C15.4368 20.8218 15.0216 20.8679 14.7504 20.6473L14.4144 20.3709C14.4144 20.3709 14.3952 20.3539 14.3856 20.3442L12.1152 18.4751C12.012 18.3903 11.8608 18.4073 11.7768 18.5091C11.6928 18.6133 11.7096 18.766 11.8104 18.8509L14.0808 20.72L14.088 20.7273C14.3544 20.9551 14.3928 21.3624 14.172 21.6315C13.956 21.9006 13.5336 21.9467 13.2672 21.7236L11.8176 20.526C11.7576 20.3588 11.6544 20.2036 11.5056 20.0848C11.3664 19.9733 11.2056 19.9103 11.04 19.886L10.9824 19.8376C11.0232 19.7067 11.04 19.566 11.0232 19.4254C10.9944 19.1636 10.8648 18.9285 10.656 18.7636C10.4952 18.6351 10.3056 18.5673 10.116 18.5527C10.2528 18.1648 10.1448 17.7163 9.80637 17.4448C9.38397 17.1054 8.76717 17.1782 8.43357 17.6048L8.39997 17.646C8.33757 17.4812 8.23677 17.3333 8.09517 17.2194C7.67277 16.8824 7.05837 16.9527 6.72237 17.3794L6.25437 17.9757L5.92557 16.0679C5.91357 16 5.87517 15.9418 5.81757 15.9054L5.08557 15.44L7.30077 11.9539L8.75757 12.6715C8.78637 12.686 8.81517 12.6933 8.84637 12.6957L12.2808 12.9309L10.1832 14.6691C10.0104 14.8121 9.90237 15.0254 9.88557 15.2509C9.87117 15.4763 9.95037 15.7018 10.104 15.8667C10.5072 16.3006 11.1552 16.4145 11.6784 16.143L13.2384 15.3357L14.8704 16.7394L14.8752 16.7491V16.7563C14.8752 16.7563 14.8872 16.766 14.8896 16.7709C14.8896 16.7733 14.8944 16.7757 14.8968 16.7782C14.9088 16.7951 14.9184 16.8121 14.9352 16.8242L17.0712 18.5867C17.2032 18.6957 17.2872 18.8509 17.304 19.023C17.3208 19.1951 17.2704 19.3648 17.1624 19.4982L17.1576 19.5006ZM12.4896 22.5503C12.2736 22.817 11.8464 22.8606 11.5872 22.6424L11.0784 22.223L11.664 21.4788C11.7384 21.3842 11.7912 21.2776 11.8248 21.166L12.3984 21.6388C12.6696 21.8642 12.7104 22.2739 12.4896 22.5479V22.5503ZM10.2576 22.2497C10.128 22.2642 9.99597 22.2279 9.89277 22.143H9.89037C9.78717 22.0582 9.71997 21.937 9.70557 21.8036C9.69117 21.6703 9.72717 21.5394 9.81117 21.4351L10.5072 20.5479C10.6056 20.4242 10.7496 20.3588 10.896 20.3588C11.0064 20.3588 11.1168 20.3951 11.208 20.4703C11.4216 20.6424 11.4576 20.9576 11.2872 21.1757L10.5912 22.063C10.5096 22.1673 10.3896 22.2351 10.2576 22.2497ZM8.41437 21.6218H8.41197C8.30877 21.537 8.24157 21.4157 8.22717 21.2824C8.21277 21.1491 8.24877 21.0182 8.33277 20.9139L9.65757 19.2267C9.75597 19.103 9.89997 19.0376 10.0464 19.0376C10.1568 19.0376 10.2672 19.0739 10.3584 19.1491C10.4616 19.2315 10.5288 19.3527 10.5432 19.486C10.5576 19.6194 10.5216 19.7503 10.4376 19.8545L10.128 20.2473L9.43197 21.1345L9.11277 21.5418C8.94237 21.76 8.63037 21.7964 8.41437 21.6218ZM7.09677 20.8897C6.99357 20.8073 6.92637 20.686 6.91197 20.5527C6.89757 20.4194 6.93357 20.2885 7.01757 20.1842L8.80557 17.9079C8.90397 17.7842 9.04797 17.7188 9.19437 17.7188C9.30477 17.7188 9.41517 17.7551 9.50637 17.8303C9.71997 18.0024 9.75597 18.32 9.58557 18.5357L9.27837 18.926L7.95357 20.6133L7.79757 20.8121C7.62717 21.0303 7.31517 21.0667 7.09917 20.8921H7.09677V20.8897ZM6.54477 19.1927H6.54237C6.32637 19.0182 6.29037 18.7006 6.46077 18.4848L7.09197 17.6824C7.19037 17.5588 7.33437 17.4933 7.48077 17.4933C7.59117 17.4933 7.70157 17.5297 7.79277 17.6048C7.89597 17.6873 7.96317 17.8085 7.97757 17.9418C7.99197 18.0751 7.95597 18.206 7.87437 18.3103L7.49277 18.7951L7.24317 19.1127C7.16157 19.217 7.04157 19.2848 6.90957 19.2994C6.77757 19.3139 6.64797 19.2776 6.54477 19.1927ZM5.64717 7.86908C5.64717 4.33211 8.49597 1.45453 11.9976 1.45453C15.4992 1.45453 18.348 4.33211 18.348 7.86908C18.348 8.31514 18.3024 8.7515 18.216 9.17089L16.1568 10.5067C16.104 10.5406 16.0656 10.5963 16.0512 10.6594C16.0368 10.7224 16.0512 10.7879 16.0824 10.8412L16.3224 11.2194L13.2336 12.1527C13.2024 12.1624 13.1736 12.177 13.1496 12.1964L12.8064 12.48L8.91117 12.2133L7.54797 11.5418L7.90797 10.977C7.94157 10.9236 7.95357 10.8582 7.93917 10.7951C7.92477 10.7321 7.88877 10.6763 7.83357 10.6424L5.81037 9.3309C5.70237 8.86059 5.64237 8.37089 5.64237 7.86908H5.64717ZM18.2952 15.7964L17.2872 18.1454L16.032 17.1103L13.4208 14.8654C13.3752 14.8267 13.32 14.8073 13.2648 14.8073C13.2264 14.8073 13.1904 14.817 13.1544 14.8339L11.4504 15.7139C11.1144 15.886 10.7016 15.8133 10.4448 15.537C10.38 15.4691 10.3488 15.377 10.356 15.2848C10.3632 15.1927 10.4064 15.1054 10.4784 15.0448L13.4232 12.606L16.5984 11.6485L18.9432 15.3382L18.3912 15.6897C18.3504 15.7163 18.3192 15.7527 18.3 15.7988L18.2952 15.7964Z" stroke="#00266F" stroke-width="0.4" mask="url(#path-1-outside-1_416_1384)"/>
<path d="M11.256 11.0715C11.304 11.12 11.364 11.1418 11.4264 11.1418C11.4888 11.1418 11.5488 11.1176 11.5968 11.0715L16.1664 6.45574C16.212 6.40968 16.236 6.34908 16.236 6.28362C16.236 6.21817 16.2096 6.15756 16.1664 6.1115L14.7288 4.65938C14.6352 4.56483 14.484 4.56483 14.3904 4.65938L11.4264 7.65332L9.88319 6.09453C9.78959 5.99999 9.63839 5.99999 9.54479 6.09453L8.10719 7.54665C8.01359 7.6412 8.01359 7.79393 8.10719 7.88847L11.2584 11.0715H11.256Z" fill="#00266F"/>
</g>
<defs>
<clipPath id="clip0_416_1384">
<rect width="24" height="24" fill="white"/>
</clipPath>
</defs>
</svg>
