<svg width="28" height="29" viewBox="0 0 28 29" fill="none" xmlns="http://www.w3.org/2000/svg">
<path d="M17 23.8008L19.6667 25.8008L25 21.8008" stroke="white" stroke-width="2" stroke-linecap="round" stroke-linejoin="round"/>
<path d="M14.1875 13.4825C14.0709 13.4708 13.9309 13.4708 13.8025 13.4825C11.0258 13.3891 8.82084 11.1141 8.82084 8.31412C8.80918 5.45579 11.1308 3.13412 13.9892 3.13412C16.8475 3.13412 19.1692 5.45579 19.1692 8.31412C19.1692 11.1141 16.9525 13.3891 14.1875 13.4825Z" stroke="white" stroke-width="2" stroke-linecap="round" stroke-linejoin="round"/>
<path d="M12.8119 26.8008C10.1954 26.8008 7.59322 26.2678 5.60929 25.2017C2.13024 23.3245 2.13024 20.2654 5.60929 18.3999C9.56277 16.2678 16.0465 16.2678 20 18.3999" stroke="white" stroke-width="2" stroke-linecap="round" stroke-linejoin="round"/>
</svg>
