<svg width="24" height="24" viewBox="0 0 24 24" fill="none" xmlns="http://www.w3.org/2000/svg">
<path d="M19.875 2.25C20.025 2.25 20.1 2.25 20.25 2.25C22.2 2.475 23.175 4.8 22.05 6.45L14.7 17.475C13.575 19.125 14.55 21.45 16.5 21.675C16.65 21.675 16.725 21.675 16.875 21.675C18.525 21.675 19.875 20.325 19.875 18.675H15" stroke="#00266F" stroke-width="1.5" stroke-miterlimit="10" stroke-linecap="round" stroke-linejoin="round"/>
<path d="M19.5 2.25H7.125" stroke="#00266F" stroke-width="1.5" stroke-miterlimit="10" stroke-linecap="round" stroke-linejoin="round"/>
<path d="M8.47495 7.72501L1.94995 17.475C0.899947 19.125 1.79995 21.525 3.74995 21.75C3.89995 21.75 3.97495 21.75 4.12495 21.75H16.4999" stroke="#00266F" stroke-width="1.5" stroke-miterlimit="10" stroke-linecap="round" stroke-linejoin="round"/>
<path d="M6.75 2.25C5.1 2.25 3.75 3.6 3.75 5.25C3.75 5.625 3.9 6 4.05 6.3C4.5 7.05 5.4 7.5 6.3 7.5H18C17.25 7.5 15.675 5.4 17.325 3.375C17.85 2.7 18.675 2.25 19.5 2.25C21.15 2.25 22.5 3.6 22.5 5.25" stroke="#00266F" stroke-width="1.5" stroke-miterlimit="10" stroke-linecap="round" stroke-linejoin="round"/>
<path d="M9.75 11.25H13.5" stroke="#00266F" stroke-width="1.5" stroke-miterlimit="10" stroke-linecap="round" stroke-linejoin="round"/>
<path d="M8.25 13.5H10.5" stroke="#00266F" stroke-width="1.5" stroke-miterlimit="10" stroke-linecap="round" stroke-linejoin="round"/>
</svg>
