<svg width="24" height="24" viewBox="0 0 24 24" fill="none" xmlns="http://www.w3.org/2000/svg">
<path d="M19.8069 11.4771C19.805 11.4514 19.8043 11.4257 19.8017 11.4006C19.7799 10.4243 19.6097 9.63539 18.8419 9.31018C18.0305 8.9665 17.3154 8.96188 16.791 9.16571C16.7567 9.17956 16.667 9.29764 16.6327 9.31941C16.5977 9.34118 16.4137 9.27983 16.3444 9.29632C15.1933 9.46058 14.8133 10.5451 14.8971 11.3907C15.1722 11.871 15.2593 12.4765 15.285 13.1025C15.7138 13.8506 16.45 14.4252 17.3286 14.4252C18.5021 14.4252 19.4316 13.4343 19.7212 12.3558C19.832 12.3433 19.9237 12.2595 19.9323 12.1447L19.9686 11.7186C19.9778 11.6071 19.9079 11.5114 19.8069 11.4771ZM17.3266 14.0953C16.1155 14.0953 15.2098 12.8123 15.2098 11.6638C15.2098 11.6097 15.2144 11.557 15.2184 11.5042C15.723 11.3195 16.6927 10.9336 16.7989 10.7304C17.2396 11.1882 18.7964 11.4455 19.4804 11.5319C19.4837 11.5754 19.4877 11.6196 19.4877 11.6638C19.4863 12.7885 18.543 14.0953 17.3266 14.0953Z" fill="#00266F"/>
<path d="M4.20992 11.7087L4.2462 12.1348C4.25676 12.2549 4.3557 12.3413 4.47312 12.3479C4.75612 13.4291 5.66974 14.4245 6.82744 14.4245C7.73578 14.4245 8.49307 13.8295 8.9258 13.0623C8.91657 12.526 9.05773 11.9752 9.36381 11.5194C9.34469 11.5055 9.33083 11.4851 9.30774 11.4771C9.30576 11.4514 9.30511 11.4257 9.30247 11.4006C9.2807 10.4243 9.11051 9.63539 8.34267 9.31018C7.53129 8.9665 6.81622 8.96188 6.2918 9.16571C6.25749 9.17956 6.16844 9.29764 6.13348 9.31941C6.09852 9.34118 5.91447 9.27983 5.84521 9.29632C4.69411 9.46058 4.31415 10.5457 4.39792 11.3914C4.39528 11.4151 4.39396 11.4389 4.39199 11.4626C4.27918 11.4897 4.19937 11.5919 4.20992 11.7087ZM4.71786 11.5049C5.22249 11.3201 6.19219 10.9343 6.29773 10.7311C6.73838 11.1889 8.29583 11.4461 8.97989 11.5326C8.98319 11.5761 8.98715 11.6203 8.98715 11.6645C8.98715 12.7885 8.04384 14.096 6.8281 14.096C5.61631 14.096 4.71126 12.813 4.71126 11.6645C4.70994 11.6097 4.7139 11.557 4.71786 11.5049Z" fill="#00266F"/>
<path d="M10.3971 4.01975C10.5693 4.67742 11.1247 5.28299 11.8292 5.28299C12.5436 5.28299 13.1076 4.68006 13.2851 4.02436C13.353 4.01645 13.4085 3.96566 13.4137 3.89573L13.4355 3.63649C13.4421 3.56854 13.3979 3.51049 13.3379 3.48938C13.3365 3.47421 13.3365 3.45838 13.3352 3.44321C13.3214 2.84952 13.2178 2.36995 12.7508 2.17139C12.2567 1.96228 11.822 1.95898 11.5027 2.08366C11.4816 2.09223 11.4275 2.16413 11.4064 2.17733C11.3853 2.19052 11.2731 2.15358 11.2309 2.16347C10.531 2.26308 10.3001 2.92274 10.3509 3.43793C10.349 3.45178 10.3483 3.46695 10.347 3.48147C10.279 3.49796 10.2309 3.55997 10.2368 3.63121L10.2593 3.89045C10.2652 3.96368 10.3259 4.01645 10.3971 4.01975ZM10.5462 3.50653C10.8529 3.39439 11.4427 3.15955 11.5073 3.03554C11.7751 3.31391 12.7224 3.47091 13.1387 3.52303C13.1406 3.55007 13.1433 3.57646 13.1433 3.6035C13.1433 4.28691 12.5687 5.08179 11.8292 5.08179C11.0917 5.08179 10.5416 4.30142 10.5416 3.6035C10.5416 3.57052 10.5436 3.53886 10.5462 3.50653Z" fill="#00266F"/>
<path d="M7.19701 3.97224C6.22468 4.11077 5.90408 5.02703 5.97467 5.7421C5.97269 5.76189 5.97137 5.78234 5.96939 5.80213C5.87506 5.82522 5.80777 5.91097 5.81701 6.00992L5.84801 6.37009C5.85659 6.47168 5.94036 6.5449 6.03931 6.54952C6.27877 7.46248 7.04991 8.30355 8.02818 8.30355C9.01964 8.30355 9.80397 7.46644 10.0494 6.55612C10.1424 6.54556 10.2196 6.47432 10.2281 6.37735L10.2585 6.01784C10.2664 5.92351 10.207 5.84303 10.1226 5.81334C10.1206 5.79223 10.1206 5.77047 10.118 5.7487C10.0995 4.92413 9.95569 4.25787 9.30725 3.9828C8.62187 3.69255 8.01762 3.68859 7.57499 3.86076C7.54597 3.87263 7.47077 3.97224 7.44108 3.99071C7.4114 4.00918 7.25638 3.95773 7.19701 3.97224ZM7.58027 5.18403C7.95232 5.57059 9.26767 5.78828 9.84553 5.86084C9.84817 5.89778 9.85147 5.93472 9.85147 5.97232C9.85147 6.92157 9.0546 8.02517 8.02752 8.02517C7.00373 8.02517 6.23985 6.94135 6.23985 5.97232C6.23985 5.9268 6.24315 5.88195 6.24645 5.83775C6.67258 5.68207 7.49122 5.35488 7.58027 5.18403Z" fill="#00266F"/>
<path d="M13.6582 6.54951C13.8976 7.46248 14.6688 8.30354 15.647 8.30354C16.6392 8.30354 17.4228 7.46643 17.6682 6.55611C17.7329 6.54885 17.779 6.50663 17.8107 6.4532L17.8595 6.44792C17.8707 6.44661 17.8905 6.43935 17.8925 6.41956L17.9235 6.06071C17.9248 6.0363 17.9004 6.02706 17.8978 6.0264L17.8773 6.01915C17.8852 5.92482 17.8259 5.84434 17.7408 5.81465C17.7395 5.79355 17.7395 5.77178 17.7368 5.75001C17.7184 4.92544 17.5745 4.25919 16.9261 3.98411C16.2407 3.69386 15.6365 3.6899 15.1938 3.86207C15.1648 3.87395 15.0896 3.97355 15.0599 3.99202C15.0309 4.00984 14.8759 3.95904 14.8165 3.97289C13.8442 4.11142 13.5236 5.02769 13.5942 5.74275C13.5922 5.76254 13.5909 5.78299 13.5882 5.80278C13.4939 5.82587 13.4273 5.91162 13.4365 6.01057L13.4675 6.37075C13.4761 6.47101 13.5592 6.54555 13.6582 6.54951ZM13.8646 5.83708C14.2908 5.6814 15.1101 5.35487 15.1985 5.18336C15.5699 5.56992 16.8859 5.78761 17.4644 5.86017C17.467 5.89711 17.4703 5.93405 17.4703 5.97165C17.4703 6.9209 16.6735 8.0245 15.6464 8.0245C14.6219 8.0245 13.858 6.94069 13.858 5.97165C13.86 5.9268 13.862 5.88128 13.8646 5.83708Z" fill="#00266F"/>
<path d="M10.1824 6.68804C10.0683 7.05811 9.85918 7.42092 9.58411 7.72502L11.8236 7.72634V7.72238L14.1107 7.72106C13.8422 7.41828 13.6377 7.05613 13.5256 6.68738C13.4022 6.63725 13.3145 6.52313 13.3026 6.3846L13.2716 6.02443C13.2597 5.89183 13.3217 5.76848 13.4273 5.69592C13.4154 5.56926 13.4207 5.43865 13.4345 5.30804C13.3013 5.17083 13.1456 5.07386 12.9576 5.04681C12.9206 5.04088 12.8844 5.04945 12.8606 5.05935L12.2709 5.85687L11.823 5.5L11.8203 5.50198V5.50396L11.8197 5.5033L11.3731 5.86083L10.7834 5.06331C10.7596 5.05407 10.7233 5.0455 10.6871 5.05143C10.5182 5.07518 10.3764 5.15764 10.2517 5.27242C10.2675 5.41952 10.2781 5.56794 10.282 5.71505C10.3783 5.78893 10.4331 5.90767 10.4225 6.03234L10.3922 6.39119C10.3803 6.52444 10.2992 6.63461 10.1824 6.68804Z" fill="#00266F"/>
<path d="M19.6748 12.6467C19.502 13.088 19.217 13.5003 18.8529 13.8051C19.2217 13.4964 19.5066 13.0821 19.6748 12.6467Z" fill="#00266F"/>
<path d="M6.03116 9.1466C6.04369 9.14858 6.05557 9.15122 6.06678 9.1532C6.0714 9.14792 6.07601 9.14265 6.08129 9.13671C6.14 9.07206 6.17826 9.03182 6.23037 9.01137C6.52722 8.89593 6.86298 8.85174 7.21986 8.87153L6.57471 7.9988C6.54173 7.98561 6.4916 7.97439 6.4408 7.98231C5.8359 8.06741 5.45462 8.65384 5.21252 9.33526C5.39129 9.24159 5.58787 9.16573 5.82073 9.13209L5.87416 9.12747C5.9177 9.12879 5.97641 9.13737 6.03116 9.1466Z" fill="#00266F"/>
<path d="M8.86288 13.7141L8.90774 14.2385C8.92027 14.3869 9.04231 14.4944 9.18677 14.501C9.53507 15.8309 10.6591 17.0572 12.084 17.0572C13.5293 17.0572 14.6718 15.8368 15.0287 14.5103C15.1646 14.4951 15.2767 14.3915 15.2899 14.2497L15.3341 13.7259C15.3466 13.5894 15.2602 13.4713 15.1356 13.4291C15.1329 13.3981 15.1323 13.3658 15.1283 13.3348C15.1026 12.1335 14.8935 11.1625 13.9469 10.7621C12.9488 10.3393 12.0688 10.3333 11.4237 10.584C11.3814 10.6005 11.2719 10.7463 11.2291 10.7733C11.1862 10.7997 10.9599 10.7252 10.8742 10.7456C9.45789 10.9475 8.99019 12.2826 9.0931 13.3235C9.09046 13.3526 9.08782 13.3816 9.08585 13.4113C8.94798 13.4449 8.84969 13.5696 8.86288 13.7141ZM9.48823 13.4627C10.1083 13.2358 11.3023 12.7609 11.4316 12.5108C11.9745 13.0742 13.8908 13.3908 14.7318 13.4964C14.7358 13.5505 14.7411 13.6046 14.7411 13.6586C14.7411 15.0426 13.5801 16.6502 12.084 16.6502C10.5925 16.6502 9.479 15.071 9.479 13.6586C9.47834 13.5927 9.48362 13.528 9.48823 13.4627Z" fill="#00266F"/>
<path d="M8.64115 9.10174L8.01975 8.60633L8.01579 8.60963V8.61293L8.01513 8.61227L7.6167 8.92957C7.87528 8.97772 8.13849 9.04566 8.40565 9.15913C9.29223 9.53447 9.44131 10.4771 9.4644 11.3591C9.77839 10.9672 10.2283 10.6711 10.8497 10.582L10.9097 10.5767C10.9618 10.5767 11.0317 10.5879 11.097 10.5998C11.1089 10.6018 11.1195 10.6038 11.1307 10.6058C10.9691 9.5602 10.5706 8.11489 9.59303 7.97702C9.54158 7.96911 9.49144 7.98032 9.45846 7.99417L8.64115 9.10174Z" fill="#00266F"/>
<path d="M17.2135 7.97702C17.162 7.96911 17.1125 7.98032 17.0795 7.99417L16.2609 9.1024L15.6395 8.60699L15.6356 8.61029V8.61359L15.6349 8.61293L15.0135 9.10833L14.1942 8.00011C14.1619 7.98692 14.1117 7.9757 14.061 7.98362C13.1895 8.10631 12.7773 9.26929 12.584 10.2614C13.0398 10.2891 13.524 10.4046 14.0128 10.611C14.3182 10.7403 14.5484 10.9237 14.7272 11.144C14.7213 10.2601 15.1916 9.29567 16.3216 9.13406L16.375 9.12944C16.4179 9.12944 16.4773 9.13868 16.5327 9.14857C16.5452 9.15055 16.5571 9.15319 16.5683 9.15517C16.5729 9.14989 16.5782 9.14461 16.5828 9.13868C16.6409 9.07403 16.6791 9.03379 16.7319 9.01334C17.1824 8.83787 17.7234 8.82204 18.2913 8.95859C18.0479 8.44538 17.7042 8.04629 17.2135 7.97702Z" fill="#00266F"/>
<path d="M12.0714 21.9934L16.7649 21.9894C16.7649 21.9894 16.6217 16.8976 14.367 16.5803C14.2925 16.5677 14.2186 16.5855 14.1718 16.6047L12.9785 18.2182L12.0728 17.4965L12.0675 17.5005V17.5058L12.0662 17.5044L11.1604 18.2268L9.96713 16.6119C9.91964 16.5928 9.84642 16.5763 9.77187 16.5875C7.51717 16.9042 7.37402 21.9974 7.37402 21.9974L12.0708 22L12.0714 21.9934Z" fill="#00266F"/>
<path d="M17.3165 18.4372L21.1306 18.4346C21.1306 18.4346 21.0145 14.2965 19.182 14.0373C19.1213 14.0281 19.0619 14.0413 19.0237 14.0571L18.0533 15.3691L17.3178 14.7814L17.3132 14.7853V14.79L17.3125 14.7886L16.577 15.3757L15.6073 14.0643C15.5743 14.0505 15.5229 14.0452 15.4721 14.0478L15.4536 14.2642C15.4398 14.441 15.325 14.5861 15.1627 14.6468C14.9305 15.4239 14.4153 16.1891 13.7134 16.6825C13.689 16.8032 13.6686 16.9207 13.6488 17.0354L14.0677 16.4694L14.1099 16.4523C14.1574 16.4332 14.2709 16.3982 14.3929 16.4173C15.3322 16.5499 15.9213 17.4246 16.2947 18.4425L17.3172 18.4438L17.3165 18.4372Z" fill="#00266F"/>
<path d="M3 18.4412L6.81677 18.4425V18.4359H7.85045C8.22448 17.4233 8.81289 16.5552 9.74894 16.4246C9.85977 16.4081 9.98114 16.4391 10.028 16.4582L10.0715 16.4754L10.4818 17.0301C10.4601 16.8976 10.4356 16.7623 10.4066 16.6231C9.75422 16.1284 9.27399 15.3929 9.05433 14.6429C8.88281 14.5874 8.7588 14.437 8.74297 14.2523L8.72582 14.0492C8.71064 14.0465 8.69811 14.0393 8.68228 14.0366C8.62159 14.0267 8.56222 14.0406 8.5233 14.0558L7.55361 15.3678L6.81809 14.7807L6.81347 14.7847V14.7886L6.81281 14.7873L6.0773 15.3744L5.1076 14.0624C5.06868 14.0478 5.00931 14.034 4.94862 14.0432C3.1161 14.3018 3 18.4412 3 18.4412Z" fill="#00266F"/>
</svg>
