<svg width="24" height="24" viewBox="0 0 24 24" fill="none" xmlns="http://www.w3.org/2000/svg">
<g clip-path="url(#clip0_416_1376)">
<g clip-path="url(#clip1_416_1376)">
<path d="M12.6708 2.21744L21.1708 6.96744C21.679 7.22153 22 7.74092 22 8.30908V9.75006C22 10.4404 21.4404 11.0001 20.75 11.0001H20V19H21C21.5523 19 22 19.4477 22 20C22 20.5523 21.5523 21 21 21H3C2.44772 21 2 20.5523 2 20C2 19.4477 2.44772 19 3 19H4V11.0001H3.25C2.55964 11.0001 2 10.4404 2 9.75006V8.30908C2 7.78826 2.26974 7.30843 2.70611 7.03636L11.3292 2.21744C11.7515 2.0063 12.2485 2.0063 12.6708 2.21744ZM18 11.0001H6V19H9H11H13H15H18V11.0001ZM12 4.1181L4 8.6181V9.00006H20V8.6181L12 4.1181ZM12 6C12.5523 6 13 6.44772 13 7C13 7.55228 12.5523 8 12 8C11.4477 8 11 7.55228 11 7C11 6.44772 11.4477 6 12 6Z" fill="#00266F"/>
<path fill-rule="evenodd" clip-rule="evenodd" d="M11.6364 11.3636C11.6364 11.2672 11.6747 11.1747 11.7429 11.1065C11.8111 11.0383 11.9036 11 12 11C12.0964 11 12.1889 11.0383 12.2571 11.1065C12.3253 11.1747 12.3636 11.2672 12.3636 11.3636V12.1135C13.0045 12.1944 13.6002 12.4862 14.057 12.943C14.5138 13.3998 14.8056 13.9955 14.8865 14.6364H15.6364C15.7328 14.6364 15.8253 14.6747 15.8935 14.7429C15.9617 14.8111 16 14.9036 16 15C16 15.0964 15.9617 15.1889 15.8935 15.2571C15.8253 15.3253 15.7328 15.3636 15.6364 15.3636H14.8865C14.8056 16.0045 14.5138 16.6002 14.057 17.057C13.6002 17.5138 13.0045 17.8056 12.3636 17.8865V18.6364C12.3636 18.7328 12.3253 18.8253 12.2571 18.8935C12.1889 18.9617 12.0964 19 12 19C11.9036 19 11.8111 18.9617 11.7429 18.8935C11.6747 18.8253 11.6364 18.7328 11.6364 18.6364V17.8865C10.9955 17.8056 10.3998 17.5138 9.94299 17.057C9.48623 16.6002 9.19439 16.0045 9.11345 15.3636H8.36364C8.26719 15.3636 8.1747 15.3253 8.10651 15.2571C8.03831 15.1889 8 15.0964 8 15C8 14.9036 8.03831 14.8111 8.10651 14.7429C8.1747 14.6747 8.26719 14.6364 8.36364 14.6364H9.11345C9.19439 13.9955 9.48623 13.3998 9.94299 12.943C10.3998 12.4862 10.9955 12.1944 11.6364 12.1135V11.3636ZM14.1818 15C14.1818 14.4213 13.9519 13.8664 13.5428 13.4572C13.1336 13.0481 12.5787 12.8182 12 12.8182C11.4213 12.8182 10.8664 13.0481 10.4572 13.4572C10.0481 13.8664 9.81818 14.4213 9.81818 15C9.81818 15.5787 10.0481 16.1336 10.4572 16.5428C10.8664 16.9519 11.4213 17.1818 12 17.1818C12.5787 17.1818 13.1336 16.9519 13.5428 16.5428C13.9519 16.1336 14.1818 15.5787 14.1818 15ZM13.0909 15C13.0909 15.2893 12.976 15.5668 12.7714 15.7714C12.5668 15.976 12.2893 16.0909 12 16.0909C11.7107 16.0909 11.4332 15.976 11.2286 15.7714C11.024 15.5668 10.9091 15.2893 10.9091 15C10.9091 14.7107 11.024 14.4332 11.2286 14.2286C11.4332 14.024 11.7107 13.9091 12 13.9091C12.2893 13.9091 12.5668 14.024 12.7714 14.2286C12.976 14.4332 13.0909 14.7107 13.0909 15Z" fill="#00266F"/>
</g>
</g>
<defs>
<clipPath id="clip0_416_1376">
<rect width="24" height="24" fill="white"/>
</clipPath>
<clipPath id="clip1_416_1376">
<rect width="24" height="24" fill="white"/>
</clipPath>
</defs>
</svg>
