<svg width="28" height="29" viewBox="0 0 28 29" fill="none" xmlns="http://www.w3.org/2000/svg">
<path d="M18.334 13.5622C18.1398 13.4774 17.9457 13.4009 17.7488 13.3298C19.1105 12.2278 19.9801 10.5462 19.9801 8.66493C19.9801 5.35634 17.2895 2.66571 13.9809 2.66571C10.6723 2.66571 7.98164 5.35634 7.98164 8.66493C7.98164 10.5489 8.85391 12.2333 10.2156 13.3325C5.99922 14.872 2.98047 18.9243 2.98047 23.6684H4.9793C4.9793 18.7056 9.01797 14.6696 13.9781 14.6696C15.2168 14.6696 16.4145 14.9157 17.5383 15.3997L18.334 13.5622ZM13.9809 4.66454C16.1875 4.66454 17.9812 6.45829 17.9812 8.66493C17.9812 10.8716 16.1875 12.6653 13.9809 12.6653C11.7742 12.6653 9.98047 10.8688 9.98047 8.66493C9.98047 6.46102 11.7742 4.66454 13.9809 4.66454ZM16.748 18.0684C16.748 18.3474 16.9012 18.6016 17.1473 18.7302L20.6473 20.5786C20.7566 20.636 20.877 20.6661 20.9973 20.6661C21.1176 20.6661 21.2379 20.636 21.3473 20.5786L24.8473 18.7302C25.0934 18.5989 25.2465 18.3446 25.2465 18.0684C25.2465 17.7923 25.0934 17.5352 24.8473 17.4067L21.3473 15.5556C21.1285 15.4407 20.866 15.4407 20.6473 15.5556L17.1473 17.4067C16.9012 17.5352 16.748 17.7895 16.748 18.0684ZM20.9973 17.0677L22.8922 18.0684L20.9973 19.0692L19.1023 18.0684L20.9973 17.0677Z" fill="white"/>
<path d="M20.9972 21.5384L16.9777 19.4138L16.2777 20.7399L20.9972 23.2337L25.6976 20.7509L24.9976 19.4247L20.9972 21.5384Z" fill="white"/>
<path d="M20.9972 23.9446L16.9777 21.8228L16.2777 23.1462L20.9972 25.6427L25.6812 23.1653L24.9812 21.8392L20.9972 23.9446Z" fill="white"/>
</svg>
