<svg width="24" height="24" viewBox="0 0 24 24" fill="none" xmlns="http://www.w3.org/2000/svg">
<path opacity="0.2" d="M10.5 15.75C10.5 16.3433 10.3241 16.9234 9.99441 17.4167C9.66477 17.9101 9.19623 18.2946 8.64805 18.5216C8.09987 18.7487 7.49667 18.8081 6.91473 18.6924C6.33279 18.5766 5.79824 18.2909 5.37868 17.8713C4.95912 17.4518 4.6734 16.9172 4.55765 16.3353C4.44189 15.7533 4.5013 15.1501 4.72836 14.602C4.95543 14.0538 5.33994 13.5852 5.83329 13.2556C6.32664 12.9259 6.90666 12.75 7.5 12.75C7.89397 12.75 8.28408 12.8276 8.64805 12.9784C9.01203 13.1291 9.34275 13.3501 9.62133 13.6287C9.8999 13.9073 10.1209 14.238 10.2716 14.6019C10.4224 14.9659 10.5 15.356 10.5 15.75ZM7.5 3C6.90666 3 6.32664 3.17595 5.83329 3.50559C5.33994 3.83524 4.95543 4.30377 4.72836 4.85195C4.5013 5.40013 4.44189 6.00333 4.55765 6.58527C4.6734 7.16722 4.95912 7.70176 5.37868 8.12132C5.79824 8.54088 6.33279 8.8266 6.91473 8.94236C7.49667 9.05811 8.09987 8.9987 8.64805 8.77164C9.19623 8.54458 9.66477 8.16006 9.99441 7.66671C10.3241 7.17336 10.5 6.59335 10.5 6C10.5 5.20435 10.1839 4.44129 9.62132 3.87869C9.05871 3.31608 8.29565 3.00001 7.5 3ZM16.5 12.75C15.9067 12.75 15.3266 12.9259 14.8333 13.2556C14.3399 13.5852 13.9554 14.0538 13.7284 14.602C13.5013 15.1501 13.4419 15.7533 13.5576 16.3353C13.6734 16.9172 13.9591 17.4518 14.3787 17.8713C14.7982 18.2909 15.3328 18.5766 15.9147 18.6924C16.4967 18.8081 17.0999 18.7487 17.6481 18.5216C18.1962 18.2946 18.6648 17.9101 18.9944 17.4167C19.3241 16.9234 19.5 16.3433 19.5 15.75C19.5 14.9544 19.1839 14.1913 18.6213 13.6287C18.0587 13.0661 17.2956 12.75 16.5 12.75ZM16.5 9C17.0933 9 17.6734 8.82405 18.1667 8.49441C18.6601 8.16477 19.0446 7.69623 19.2716 7.14805C19.4987 6.59987 19.5581 5.99667 19.4424 5.41473C19.3266 4.83279 19.0409 4.29824 18.6213 3.87868C18.2018 3.45912 17.6672 3.1734 17.0853 3.05765C16.5033 2.94189 15.9001 3.0013 15.352 3.22836C14.8038 3.45543 14.3352 3.83994 14.0056 4.33329C13.6759 4.82664 13.5 5.40666 13.5 6C13.5 6.39397 13.5776 6.78408 13.7284 7.14805C13.8791 7.51203 14.1001 7.84275 14.3787 8.12133C14.6573 8.3999 14.988 8.62088 15.3519 8.77164C15.7159 8.92241 16.106 9 16.5 9Z" fill="#00266F"/>
<path d="M2.54932 11.8495C2.62807 11.9086 2.7177 11.9517 2.81309 11.9762C2.90848 12.0007 3.00777 12.0062 3.10528 11.9924C3.20279 11.9785 3.29662 11.9456 3.3814 11.8955C3.46619 11.8453 3.54027 11.779 3.59943 11.7003C4.05276 11.0958 4.64039 10.6049 5.31595 10.2665C5.9915 9.92801 6.73648 9.75121 7.49207 9.75002C8.24766 9.74883 8.99319 9.92328 9.66981 10.2596C10.3464 10.5959 10.9356 11.0849 11.3908 11.688C11.4086 11.7123 11.4277 11.7354 11.4482 11.7574C11.4507 11.7601 11.4533 11.7625 11.4558 11.7651C11.47 11.78 11.4845 11.7946 11.5001 11.8085C11.506 11.8138 11.5122 11.8185 11.5182 11.8236C11.5285 11.8322 11.5384 11.8413 11.5493 11.8495C11.5512 11.851 11.5534 11.8519 11.5554 11.8533C11.5831 11.8736 11.6122 11.8919 11.6424 11.9082C11.6511 11.9129 11.6597 11.9173 11.6685 11.9217C11.6976 11.9362 11.7277 11.9489 11.7585 11.9595C11.7673 11.9625 11.7762 11.9646 11.7851 11.9673C11.8109 11.975 11.837 11.9813 11.8635 11.9862C11.8723 11.9878 11.881 11.9899 11.8898 11.9912C11.9218 11.9958 11.9541 11.9984 11.9864 11.9988C11.9907 11.9989 11.9949 11.9998 11.9992 11.9998C12.0055 11.9998 12.0118 11.9989 12.0182 11.9987C12.0337 11.9984 12.0491 11.9974 12.0647 11.9961C12.075 11.9952 12.0854 11.9944 12.0957 11.9931C12.1141 11.9907 12.1324 11.9874 12.1506 11.9836C12.1582 11.9821 12.1659 11.9809 12.1734 11.9791C12.2259 11.9668 12.2768 11.9487 12.3253 11.9254C12.3333 11.9215 12.3409 11.9169 12.3488 11.9128C12.3645 11.9045 12.3803 11.896 12.3956 11.8864C12.4054 11.8804 12.4148 11.8736 12.4243 11.8671C12.4331 11.8611 12.4421 11.8557 12.4506 11.8493C12.4552 11.8459 12.4593 11.8419 12.4637 11.8384C12.4723 11.8316 12.4806 11.8246 12.4889 11.8174C12.5032 11.8051 12.5169 11.7925 12.53 11.7793C12.5357 11.7736 12.5415 11.7679 12.5471 11.7619C12.5642 11.7437 12.5803 11.7247 12.5955 11.7049C12.5967 11.7033 12.5982 11.7019 12.5994 11.7003C13.0536 11.0947 13.6425 10.6033 14.3195 10.2648C14.9965 9.92627 15.743 9.75003 16.4999 9.75001C17.2568 9.74999 18.0034 9.9262 18.6804 10.2647C19.3574 10.6031 19.9463 11.0946 20.4005 11.7001C20.4596 11.7789 20.5337 11.8454 20.6185 11.8956C20.7033 11.9458 20.7972 11.9788 20.8947 11.9928C20.9923 12.0067 21.0917 12.0012 21.1871 11.9767C21.2826 11.9522 21.3723 11.9091 21.4511 11.8499C21.5299 11.7908 21.5962 11.7166 21.6464 11.6317C21.6965 11.5469 21.7294 11.453 21.7432 11.3554C21.757 11.2578 21.7515 11.1585 21.7269 11.063C21.7022 10.9676 21.6591 10.8779 21.5998 10.7992C20.9351 9.90859 20.0485 9.20777 19.0285 8.76664C19.587 8.25676 19.9782 7.58997 20.1509 6.85376C20.3236 6.11755 20.2697 5.34633 19.9963 4.6413C19.7228 3.93628 19.2426 3.3304 18.6187 2.90316C17.9948 2.47593 17.2562 2.24731 16.5 2.24731C15.7438 2.24731 15.0053 2.47593 14.3814 2.90316C13.7574 3.3304 13.2772 3.93628 13.0038 4.6413C12.7303 5.34633 12.6764 6.11755 12.8491 6.85376C13.0218 7.58997 13.4131 8.25676 13.9715 8.76664C13.2351 9.08424 12.566 9.53935 12 10.1076C11.4341 9.53938 10.7649 9.08427 10.0285 8.76664C10.587 8.25676 10.9782 7.58997 11.1509 6.85376C11.3236 6.11755 11.2697 5.34633 10.9963 4.6413C10.7228 3.93628 10.2426 3.3304 9.61869 2.90316C8.99475 2.47593 8.25622 2.24731 7.50003 2.24731C6.74384 2.24731 6.00531 2.47593 5.38137 2.90316C4.75743 3.3304 4.27723 3.93628 4.00378 4.6413C3.73034 5.34633 3.67644 6.11755 3.84914 6.85376C4.02184 7.58997 4.41309 8.25676 4.97153 8.76664C3.95143 9.2078 3.06481 9.90868 2.40009 10.7994C2.28063 10.9584 2.22924 11.1584 2.25723 11.3553C2.28521 11.5523 2.39028 11.73 2.54932 11.8495ZM14.25 6.00001C14.25 5.555 14.382 5.11999 14.6292 4.74998C14.8765 4.37997 15.2279 4.09158 15.639 3.92128C16.0501 3.75098 16.5025 3.70643 16.939 3.79324C17.3754 3.88006 17.7764 4.09435 18.091 4.40902C18.4057 4.72369 18.62 5.1246 18.7068 5.56106C18.7936 5.99751 18.7491 6.44991 18.5788 6.86105C18.4085 7.27218 18.1201 7.62358 17.7501 7.87082C17.3801 8.11805 16.945 8.25001 16.5 8.25001C15.9035 8.24933 15.3316 8.01206 14.9098 7.59025C14.488 7.16844 14.2507 6.59654 14.25 6.00001ZM5.25003 6.00001C5.25003 5.555 5.38199 5.11999 5.62922 4.74998C5.87646 4.37997 6.22786 4.09158 6.63899 3.92128C7.05013 3.75098 7.50253 3.70643 7.93898 3.79324C8.37544 3.88006 8.77635 4.09435 9.09102 4.40902C9.40569 4.72369 9.61998 5.1246 9.7068 5.56106C9.79361 5.99751 9.74906 6.44991 9.57876 6.86105C9.40846 7.27218 9.12007 7.62358 8.75006 7.87082C8.38005 8.11805 7.94504 8.25001 7.50003 8.25001C6.9035 8.24933 6.3316 8.01206 5.90979 7.59025C5.48798 7.16844 5.25071 6.59654 5.25003 6.00001ZM19.0285 18.5166C19.587 18.0068 19.9782 17.34 20.1509 16.6038C20.3236 15.8676 20.2697 15.0963 19.9963 14.3913C19.7228 13.6863 19.2426 13.0804 18.6187 12.6532C17.9948 12.2259 17.2562 11.9973 16.5 11.9973C15.7438 11.9973 15.0053 12.2259 14.3814 12.6532C13.7574 13.0804 13.2772 13.6863 13.0038 14.3913C12.7303 15.0963 12.6764 15.8676 12.8491 16.6038C13.0218 17.34 13.4131 18.0068 13.9715 18.5166C13.2351 18.8342 12.566 19.2894 12 19.8576C11.4341 19.2894 10.7649 18.8343 10.0285 18.5166C10.587 18.0068 10.9782 17.34 11.1509 16.6038C11.3236 15.8676 11.2697 15.0963 10.9963 14.3913C10.7228 13.6863 10.2426 13.0804 9.61869 12.6532C8.99475 12.2259 8.25622 11.9973 7.50003 11.9973C6.74384 11.9973 6.00531 12.2259 5.38137 12.6532C4.75743 13.0804 4.27723 13.6863 4.00378 14.3913C3.73034 15.0963 3.67644 15.8676 3.84914 16.6038C4.02184 17.34 4.41309 18.0068 4.97153 18.5166C3.95143 18.9578 3.06481 19.6587 2.40009 20.5494C2.34093 20.6281 2.29787 20.7178 2.27336 20.8132C2.24884 20.9086 2.24336 21.0078 2.25722 21.1054C2.27107 21.2029 2.304 21.2967 2.35412 21.3815C2.40424 21.4663 2.47057 21.5403 2.54932 21.5995C2.62807 21.6587 2.7177 21.7017 2.81309 21.7262C2.90848 21.7507 3.00777 21.7562 3.10528 21.7424C3.20279 21.7285 3.29662 21.6956 3.38141 21.6455C3.46619 21.5953 3.54028 21.529 3.59943 21.4503C4.05276 20.8458 4.6404 20.3549 5.31595 20.0165C5.9915 19.678 6.73648 19.5012 7.49207 19.5C8.24767 19.4988 8.9932 19.6733 9.66981 20.0096C10.3464 20.3459 10.9356 20.8349 11.3908 21.438C11.4086 21.4623 11.4277 21.4854 11.4482 21.5074C11.4507 21.5101 11.4533 21.5125 11.4558 21.5151C11.47 21.53 11.4845 21.5446 11.5001 21.5585C11.506 21.5637 11.5121 21.5685 11.5181 21.5735C11.5285 21.5822 11.5383 21.5913 11.5493 21.5995C11.5513 21.601 11.5535 21.6019 11.5555 21.6034C11.5831 21.6236 11.6121 21.6419 11.6423 21.6581C11.651 21.6629 11.6598 21.6674 11.6687 21.6718C11.6977 21.6862 11.7277 21.6988 11.7583 21.7095C11.7674 21.7125 11.7765 21.7147 11.7856 21.7174C11.811 21.725 11.8368 21.7312 11.8629 21.7361C11.872 21.7377 11.881 21.7399 11.8902 21.7413C11.9219 21.7458 11.9539 21.7483 11.9859 21.7488C11.9904 21.7489 11.9948 21.7498 11.9992 21.7498C12.0058 21.7498 12.0123 21.7489 12.0189 21.7487C12.0339 21.7484 12.0487 21.7474 12.0637 21.7462C12.0746 21.7452 12.0854 21.7444 12.0963 21.743C12.114 21.7407 12.1316 21.7374 12.1492 21.7339C12.1574 21.7322 12.1657 21.731 12.1738 21.729C12.1987 21.7232 12.2233 21.716 12.2475 21.7076C12.2486 21.7072 12.2496 21.707 12.2506 21.7067C12.276 21.6976 12.3009 21.6872 12.3251 21.6754C12.3334 21.6715 12.3413 21.6667 12.3495 21.6624C12.365 21.6542 12.3804 21.6459 12.3955 21.6365C12.4054 21.6304 12.4149 21.6236 12.4244 21.617C12.4331 21.611 12.4421 21.6057 12.4507 21.5993C12.4552 21.5959 12.4593 21.5919 12.4637 21.5884C12.4723 21.5816 12.4806 21.5746 12.4889 21.5674C12.5032 21.5551 12.5169 21.5425 12.53 21.5294C12.5358 21.5236 12.5415 21.5179 12.5471 21.5119C12.5642 21.4937 12.5803 21.4747 12.5955 21.4549C12.5967 21.4533 12.5982 21.4519 12.5994 21.4503C13.0536 20.8447 13.6425 20.3533 14.3195 20.0148C14.9965 19.6763 15.743 19.5 16.4999 19.5C17.2568 19.5 18.0034 19.6762 18.6804 20.0147C19.3574 20.3531 19.9463 20.8446 20.4005 21.4501C20.4596 21.529 20.5337 21.5954 20.6185 21.6456C20.7033 21.6958 20.7972 21.7288 20.8947 21.7428C20.9923 21.7567 21.0917 21.7512 21.1871 21.7267C21.2826 21.7022 21.3723 21.6591 21.4511 21.6C21.5299 21.5408 21.5962 21.4666 21.6464 21.3818C21.6965 21.2969 21.7294 21.203 21.7432 21.1054C21.757 21.0078 21.7515 20.9085 21.7269 20.813C21.7023 20.7176 21.6591 20.6279 21.5998 20.5492C20.9351 19.6586 20.0485 18.9578 19.0285 18.5166ZM5.25003 15.75C5.25003 15.305 5.38199 14.87 5.62922 14.5C5.87646 14.13 6.22786 13.8416 6.63899 13.6713C7.05013 13.501 7.50253 13.4564 7.93898 13.5432C8.37544 13.6301 8.77635 13.8444 9.09102 14.159C9.40569 14.4737 9.61998 14.8746 9.7068 15.3111C9.79361 15.7475 9.74906 16.1999 9.57876 16.611C9.40846 17.0222 9.12007 17.3736 8.75006 17.6208C8.38005 17.868 7.94504 18 7.50003 18C6.9035 17.9993 6.3316 17.7621 5.90979 17.3402C5.48798 16.9184 5.25071 16.3465 5.25003 15.75ZM14.25 15.75C14.25 15.305 14.382 14.87 14.6292 14.5C14.8765 14.13 15.2279 13.8416 15.639 13.6713C16.0501 13.501 16.5025 13.4564 16.939 13.5432C17.3754 13.6301 17.7764 13.8444 18.091 14.159C18.4057 14.4737 18.62 14.8746 18.7068 15.3111C18.7936 15.7475 18.7491 16.1999 18.5788 16.611C18.4085 17.0222 18.1201 17.3736 17.7501 17.6208C17.3801 17.868 16.945 18 16.5 18C15.9035 17.9993 15.3316 17.7621 14.9098 17.3402C14.488 16.9184 14.2507 16.3465 14.25 15.75Z" fill="#00266F"/>
</svg>
